<svg xmlns="http://www.w3.org/2000/svg" version="1.1" viewBox="4.096 411.648 1019.904 184.32" style="max-height: 500px" width="1019.904" height="184.32">
<path transform="translate(187,430)" fill="#6935ED" d="M0 0 C15.02539393 12.44442241 24.65233306 28.70295039 28 48 C28.21700779 51.83100809 28.1898534 55.66337363 28.1875 59.5 C28.18814453 60.57266113 28.18878906 61.64532227 28.18945312 62.75048828 C28.13864367 70.37998995 27.49217796 77.51246416 26 85 C26 85.66 26 86.32 26 87 C39.08675948 79.17781423 44.70670657 61.73482977 50.78662109 48.45507812 C51.82299962 46.35813196 52.94959192 44.57306941 54.27734375 42.66015625 C57.31736073 37.50327284 56.68183355 31.17534545 56.75 25.375 C56.77964844 24.16070312 56.80929688 22.94640625 56.83984375 21.6953125 C56.91459286 18.46330327 56.96880779 15.23269657 57 12 C57.04286133 11.11521973 57.08572266 10.23043945 57.12988281 9.31884766 C57.1672993 6.69464151 57.1672993 6.69464151 55 3.75 C52.43483383 -0.430947 52.27938962 -4.20794098 53 -9 C54.41998746 -12.84231902 55.63819498 -13.78717352 59.1875 -15.875 C63.58321548 -17.17209637 66.66344082 -17.55301435 71 -16 C74.8087467 -13.54156042 77.54915219 -11.35254344 79 -7 C79.5421935 -0.94203035 79.37227953 3.73924393 76 9 C75.67 9.33 75.34 9.66 75 10 C74.98327739 11.78293062 75.03717073 13.56662336 75.12109375 15.34765625 C75.16943359 16.42724609 75.21777344 17.50683594 75.26757812 18.61914062 C75.32365234 19.75544922 75.37972656 20.89175781 75.4375 22.0625 C75.48970703 23.20267578 75.54191406 24.34285156 75.59570312 25.51757812 C75.72584787 28.34526854 75.86233952 31.1726655 76 34 C79.96 34.66 83.92 35.32 88 36 C88.020625 35.071875 88.04125 34.14375 88.0625 33.1875 C88.7272601 28.25215987 91.56936375 24.59386186 94.30859375 20.55078125 C96.40709959 17.40518824 96.40709959 17.40518824 98 14 C97.54625 13.278125 97.0925 12.55625 96.625 11.8125 C94.34428734 7.8651127 94.28617298 4.46141887 95 0 C96.94027407 -3.57010428 98.68991374 -4.81759632 102.1875 -6.875 C106.82501037 -8.24344568 110.34905928 -8.2914432 115 -7 C118.43615111 -4.87982166 120.80717883 -2.90377836 122 1 C122.5709851 6.05729656 122.61638809 7.99136494 119.9375 12.375 C117 15 117 15 113.375 15.8125 C109.96779701 16.59388079 109.96779701 16.59388079 108.9921875 18.796875 C108.21221648 21.17783915 107.60306461 23.56865722 107 26 C106.46711128 27.46156372 105.9255427 28.91999429 105.375 30.375 C103.55539866 35.98054606 101.50386215 42.55397758 103.953125 48.1953125 C104.81659427 49.52172614 105.71695492 50.82484794 106.65234375 52.1015625 C110.29367804 57.23109428 111.65676752 62.76070859 111 69 C109.13917888 78.25381314 103.81473294 83.71476161 96.6953125 89.54296875 C91.52976199 94.10965309 88.37613994 99.29721661 85 105.25 C83.78939033 107.30458404 82.57457679 109.35669714 81.35546875 111.40625 C80.77845215 112.37820313 80.20143555 113.35015625 79.60693359 114.3515625 C67.98215812 133.51071844 50.84949604 148.88022028 29 155 C19.16151539 157.36248298 9.9573861 158.4415434 -0.18383789 158.40405273 C-1.52605754 158.40977667 -2.86827234 158.4167486 -4.21047974 158.42485046 C-7.80292723 158.44255573 -11.3951276 158.44165931 -14.98760533 158.43590808 C-18.00002771 158.4327888 -21.01240445 158.43893742 -24.02482027 158.44494683 C-31.12815889 158.45891032 -38.23137696 158.45749416 -45.3347168 158.44604492 C-52.64739128 158.43451847 -59.95970093 158.44873336 -67.27232748 158.4754414 C-73.57758085 158.49760221 -79.88271966 158.5042365 -86.1880092 158.49836498 C-89.94284784 158.49500152 -93.69745157 158.49737206 -97.45225716 158.51461601 C-101.6286453 158.53296788 -105.80431984 158.51889453 -109.98071289 158.50170898 C-111.83458366 158.51621094 -111.83458366 158.51621094 -113.72590637 158.53100586 C-120.78585947 158.47006673 -124.90320838 158.09679162 -130 153 C-130.58551108 145.8567648 -130.58551108 145.8567648 -128.6171875 142.9765625 C-124.70305443 140.02051573 -120.44117296 138.70894705 -115.8125 137.1875 C-114.90435547 136.86330078 -113.99621094 136.53910156 -113.06054688 136.20507812 C-104.14476716 133.2246421 -97.85116055 134.30639085 -89 137.0625 C-68.99350728 142.55515151 -47.5324959 139.74709058 -29.359375 130.10546875 C-15.83274119 121.62772965 -5.81082892 108.51503124 -1.91796875 92.9296875 C0.89725654 79.68684599 0.49463221 64.43971081 -5 52 C-5.65355469 50.45119141 -5.65355469 50.45119141 -6.3203125 48.87109375 C-12.82419209 34.67273366 -22.82343171 26.61501175 -37.15625 20.96875 C-40.94779424 19.67712504 -43.98201584 19.19133258 -48 19 C-48.82886719 18.94972656 -49.65773438 18.89945312 -50.51171875 18.84765625 C-64.38785845 18.35278679 -75.38025645 22.9398971 -85.75 32.0625 C-93.68155944 40.56742518 -97.93255884 52.4799336 -98.0234375 63.9609375 C-97.47784764 75.13117201 -94.33999041 83.7582043 -86.484375 91.83203125 C-79.62301965 97.81953474 -72.10582347 100.42988866 -63 100 C-55.08557397 98.76886706 -48.31343297 95.37669878 -43.4296875 88.92578125 C-39.86100793 83.08334298 -38.17696945 77.41837455 -39.4453125 70.609375 C-40.90431935 65.54477652 -42.89811449 62.45421938 -47 59 C-47.33 58.67 -47.66 58.34 -48 58 C-50.67058851 57.85884839 -53.32432238 57.95752893 -56 58 C-55.55328106 63.06281464 -53.26430066 65.32766175 -50 69 C-48.44055661 72.11888678 -48.71683725 74.5454145 -49 78 C-50.92729549 83.28629621 -53.93208847 86.46604424 -59 89 C-65.3654466 90.56527375 -70.1129633 89.90116557 -76 87 C-82.60193348 82.81530988 -85.58118538 77.25644385 -88 70 C-89.08248811 60.11842993 -87.11300894 51.733853 -81.28515625 43.609375 C-79.60685811 41.6262656 -77.87291706 39.7986989 -76 38 C-75.236875 37.2575 -74.47375 36.515 -73.6875 35.75 C-63.27571052 28.97023011 -51.78078313 28.31341501 -39.74609375 30.625 C-28.15815246 34.317317 -20.5211338 42.4423 -15 53 C-8.88403909 65.9591245 -8.13983825 79.41912248 -13 93 C-19.54365779 107.74919693 -29.6993089 119.19945744 -44.65625 125.67578125 C-61.53718134 132.15390385 -81.10382204 130.51876352 -97.5234375 123.4921875 C-109.39257669 117.54378441 -117.66575545 109.6316818 -124 98 C-124.47308594 97.13632812 -124.94617188 96.27265625 -125.43359375 95.3828125 C-134.35103836 77.54792328 -133.72473401 57.48443926 -127.7109375 38.8828125 C-123.27510577 25.96640094 -116.58702627 15.76668094 -107 6 C-106.33613281 5.31164062 -105.67226562 4.62328125 -104.98828125 3.9140625 C-76.63880081 -23.40943674 -30.47845391 -23.68171594 0 0 Z"/>
<path transform="translate(676,479)" fill="#6233E9" d="M0 0 C5.61 0 11.22 0 17 0 C19.72704552 6.76616011 21.67588424 13.68386279 23.58935547 20.71899414 C24.12696069 22.69470557 24.67045124 24.66872729 25.21484375 26.64257812 C28.09028673 37.13740652 28.09028673 37.13740652 29 42 C31.19299225 38.17622468 32.2079446 34.02721474 33.34765625 29.8046875 C33.56441513 29.01603302 33.78117401 28.22737854 34.00450134 27.41482544 C34.69444099 24.90260992 35.37882893 22.38892802 36.0625 19.875 C36.75046582 17.35413957 37.43963227 14.83362313 38.13121033 12.31375122 C38.56086482 10.74737753 38.98831194 9.18039638 39.41334534 7.61276245 C40.88826809 2.22346383 40.88826809 2.22346383 42 0 C47.61 0 53.22 0 59 0 C61.08278633 5.43289067 62.97249343 10.88219413 64.69921875 16.4375 C64.9391304 17.20304199 65.17904205 17.96858398 65.42622375 18.75732422 C66.18208531 21.17089762 66.93484559 23.5854248 67.6875 26 C68.2035701 27.64980402 68.71984429 29.29954421 69.23632812 30.94921875 C70.49324331 34.96541268 71.74738067 38.98246426 73 43 C73.29769287 41.8039917 73.59538574 40.6079834 73.90209961 39.37573242 C75.00605017 34.94184095 76.1115539 30.50833797 77.2175293 26.07495117 C77.69614412 24.15546067 78.17433668 22.23586483 78.65209961 20.31616211 C79.33857222 17.55815323 80.02655846 14.80052574 80.71484375 12.04296875 C81.03520851 10.75376778 81.03520851 10.75376778 81.36204529 9.43852234 C81.56217728 8.63791885 81.76230927 7.83731537 81.96850586 7.01245117 C82.23164833 5.95655037 82.23164833 5.95655037 82.50010681 4.87931824 C82.93750446 3.23494819 83.46192291 1.61423127 84 0 C89.94 0 95.88 0 102 0 C100.66734624 7.03874817 99.02918378 13.90325266 97.1015625 20.80078125 C96.82533051 21.79901413 96.54909851 22.79724701 96.26449585 23.82572937 C95.68290748 25.92457295 95.09960025 28.02294094 94.51464844 30.12084961 C93.63062406 33.29232345 92.75236621 36.46535043 91.875 39.63867188 C89.05615866 49.80644279 86.17908062 59.93813154 83 70 C76.4 70 69.8 70 63 70 C61.44980946 64.68031814 59.9008986 59.36029779 58.35522461 54.03930664 C57.82928064 52.23016953 57.3025951 50.42124783 56.77514648 48.61254883 C56.01610261 46.00919289 55.25974974 43.40506791 54.50390625 40.80078125 C54.26845596 39.99538406 54.03300568 39.18998688 53.79042053 38.36018372 C52.6995411 34.59226955 51.68152426 30.86875215 51 27 C50.67201416 28.23153809 50.34402832 29.46307617 50.00610352 30.73193359 C48.79132644 35.29094867 47.57371034 39.84920142 46.35522461 44.40722656 C45.82775348 46.3819537 45.3010577 48.3568881 44.77514648 50.33203125 C44.02009441 53.16721265 43.26227827 56.0016426 42.50390625 58.8359375 C42.26845596 59.72243988 42.03300568 60.60894226 41.79042053 61.52230835 C41.57026779 62.34300812 41.35011505 63.16370789 41.12329102 64.00927734 C40.93009781 64.73319672 40.7369046 65.45711609 40.53785706 66.20297241 C40 68 40 68 39 70 C32.73 70 26.46 70 20 70 C16.62505318 61.00014182 16.62505318 61.00014182 15.421875 56.93603516 C15.15149414 56.02794098 14.88111328 55.1198468 14.60253906 54.18423462 C14.32120117 53.22882782 14.03986328 52.27342102 13.75 51.2890625 C13.45061523 50.2808847 13.15123047 49.27270691 12.84277344 48.23397827 C11.89249524 45.03177484 10.94615863 41.82842278 10 38.625 C9.36484972 36.48169187 8.72943547 34.33846196 8.09375 32.1953125 C5.15514787 22.28662725 5.15514787 22.28662725 3.79101562 17.64385986 C3.25359992 15.8476225 2.69958431 14.05628544 2.13085938 12.26971436 C1.85564453 11.39744202 1.58042969 10.52516968 1.296875 9.62646484 C1.04776367 8.85539398 0.79865234 8.08432312 0.54199219 7.28988647 C0 5 0 5 0 0 Z"/>
<path transform="translate(378,451)" fill="#6435E9" d="M0 0 C5.94 0 11.88 0 18 0 C17.67 11.22 17.34 22.44 17 34 C19.64 32.02 22.28 30.04 25 28 C31.32920541 24.67692705 39.66489384 24.85990122 46.48046875 26.65234375 C52.10669589 29.18795482 56.49565961 33.42688257 58.90071106 39.13937378 C61.01005234 45.86526018 61.46954544 52.110774 61.51171875 59.1328125 C61.52966995 60.25066132 61.54762115 61.36851013 61.56611633 62.52023315 C61.61985985 66.05511822 61.65399966 69.58987107 61.6875 73.125 C61.72070478 75.53647659 61.75519731 77.94793581 61.79101562 80.359375 C61.87556536 86.23946465 61.94406589 92.1195722 62 98 C58.30691024 99.23102992 55.11949288 98.87175152 51.3125 98.5625 C50.61060547 98.51029297 49.90871094 98.45808594 49.18554688 98.40429688 C47.45661946 98.27492135 45.72824645 98.13817469 44 98 C43.970271 96.10894531 43.970271 96.10894531 43.93994141 94.1796875 C43.86352478 89.47555508 43.7748643 84.77171751 43.68261719 80.06787109 C43.64447584 78.03700609 43.6095978 76.00607695 43.578125 73.97509766 C43.5321506 71.04566619 43.47421109 68.11667067 43.4140625 65.1875 C43.40251129 64.28821777 43.39096008 63.38893555 43.37905884 62.46240234 C43.24189039 56.52348815 42.99855326 50.26079743 39.8125 45.0625 C36.32822913 43.01999639 32.83933878 42.55389171 28.90625 43.5078125 C25.15441054 44.83775559 21.97249897 46.2987592 19 49 C18.38565155 51.26572603 18.38565155 51.26572603 18.45410156 53.83862305 C18.42452362 55.30980843 18.42452362 55.30980843 18.39434814 56.81071472 C18.39311951 57.86704605 18.39189087 58.92337738 18.390625 60.01171875 C18.37408875 61.09508011 18.35755249 62.17844147 18.34051514 63.29463196 C18.2918831 66.75897809 18.27062985 70.22288481 18.25 73.6875 C18.22185314 76.0345275 18.19192754 78.38153439 18.16015625 80.72851562 C18.08612021 86.4855969 18.03456693 92.24255382 18 98 C12.63343685 100.68328157 5.98831547 98.37426972 0 98 C0 65.66 0 33.32 0 0 Z"/>
<path transform="translate(500.05859375,483.3203125)" fill="#6434E9" d="M0 0 C7.64485195 6.01723831 11.37067476 14.21790016 12.94140625 23.6796875 C13.15548862 27.69605893 13.13066799 31.66313281 12.94140625 35.6796875 C8.06424323 36.95065243 3.26569969 36.80624624 -1.734375 36.77734375 C-2.65953415 36.7759288 -3.5846933 36.77451385 -4.53788757 36.77305603 C-7.48232302 36.76747465 -10.42668142 36.75492555 -13.37109375 36.7421875 C-15.37174369 36.73717009 -17.37239483 36.73260761 -19.37304688 36.72851562 C-24.26825869 36.71751131 -29.16341317 36.70025948 -34.05859375 36.6796875 C-33.2766103 38.30617552 -32.48748589 39.92923177 -31.6953125 41.55078125 C-31.25662842 42.45497803 -30.81794434 43.3591748 -30.3659668 44.29077148 C-28.6437753 47.43767041 -27.4793951 48.53942038 -24.05859375 49.6796875 C-17.85338338 51.11826568 -13.42877828 51.06523953 -7.84765625 47.8828125 C-5.86343538 46.54844563 -3.95614693 45.13419963 -2.05859375 43.6796875 C-0.07141881 44.57886168 1.9059951 45.4996337 3.87890625 46.4296875 C5.53212891 47.19539062 5.53212891 47.19539062 7.21875 47.9765625 C9.94140625 49.6796875 9.94140625 49.6796875 11.00390625 51.63671875 C10.87081193 55.9872394 6.9343457 58.86049547 3.94140625 61.6796875 C-3.21483298 67.55487156 -10.94992417 69.02179876 -20.05859375 68.5546875 C-29.82873966 67.45241463 -37.39130909 63.9720301 -44.05859375 56.6796875 C-50.19517498 48.84915416 -52.62601638 40.14959981 -52.49609375 30.3046875 C-52.48634521 29.47396729 -52.47659668 28.64324707 -52.46655273 27.78735352 C-52.15265279 16.88172444 -49.05686374 9.68932109 -41.4375 1.78125 C-30.08039388 -8.25179285 -12.45152468 -7.98598736 0 0 Z M-31.05859375 13.6796875 C-33.90548658 18.3962238 -33.90548658 18.3962238 -35.05859375 23.6796875 C-24.82859375 23.6796875 -14.59859375 23.6796875 -4.05859375 23.6796875 C-6.99311212 15.54569709 -6.99311212 15.54569709 -13.05859375 10.6796875 C-19.52743342 8.52340761 -26.00274826 8.81583614 -31.05859375 13.6796875 Z"/>
<path transform="translate(902.75,480.5625)" fill="#6637E9" d="M0 0 C8.17593276 4.82199349 13.02793731 11.58193157 15.9375 20.55859375 C17.53776694 26.79296702 17.25 31.70453334 17.25 38.4375 C1.41 38.4375 -14.43 38.4375 -30.75 38.4375 C-26.9501899 47.59112827 -26.9501899 47.59112827 -19.671875 52.23828125 C-14.32228275 53.49870676 -9.82020487 53.86674102 -4.75 51.4375 C-3.863125 50.550625 -2.97625 49.66375 -2.0625 48.75 C-1.299375 47.986875 -0.53625 47.22375 0.25 46.4375 C4.11330934 46.76379302 7.15388462 48.22752 10.5625 50 C11.44550781 50.45503906 12.32851563 50.91007813 13.23828125 51.37890625 C13.90214844 51.72824219 14.56601562 52.07757812 15.25 52.4375 C14.34365618 58.08545307 11.86690714 61.40212778 7.421875 64.859375 C-1.31254274 70.70524514 -10.44286948 71.36607032 -20.75 70.4375 C-29.54251885 68.3118361 -37.7076856 63.00097161 -42.75 55.4375 C-48.7456439 45.15608102 -50.31962539 34.36474439 -48.25 22.59375 C-45.7507334 13.39190479 -40.80815353 5.71605828 -32.75 0.4375 C-22.76851424 -4.41854754 -10.06721899 -4.70642488 0 0 Z M-28.5625 18.375 C-31.13749213 21.3527361 -31.13749213 21.3527361 -30.75 25.4375 C-20.85 25.4375 -10.95 25.4375 -0.75 25.4375 C-3.12701482 18.22251119 -3.12701482 18.22251119 -8.57421875 13.31640625 C-16.30342953 10.19419364 -23.18795989 12.47793515 -28.5625 18.375 Z"/>
<path transform="translate(658.92578125,480.609375)" fill="#6231EC" d="M0 0 C7.77969781 5.21576727 13.11224845 12.18422342 15.07421875 21.390625 C16.1239046 35.31557145 17.1221914 49.21293887 8.27734375 60.73046875 C2.30178353 67.33943835 -5.20937106 70.89947983 -14.0625 71.546875 C-23.4449972 71.90037568 -31.90580794 70.08127619 -39.21484375 63.98046875 C-47.30275096 56.46499333 -50.45127266 47.61715748 -51.1640625 36.76171875 C-51.3751017 25.57664109 -50.61687658 15.32188983 -43.17578125 6.328125 C-32.82928004 -4.19210477 -13.19447977 -6.53967235 0 0 Z M-30.92578125 19.265625 C-34.97248786 25.58860408 -34.82386231 33.7305036 -33.4296875 40.96484375 C-32.00075574 45.84904552 -30.47497753 48.74574344 -25.92578125 51.390625 C-21.04405696 53.668763 -17.05331055 53.67516132 -11.92578125 52.390625 C-7.24083772 50.26110521 -4.22558679 46.99023609 -1.92578125 42.390625 C-1.77418722 39.62694918 -1.69436732 36.90530343 -1.67578125 34.140625 C-1.65515625 33.38910156 -1.63453125 32.63757813 -1.61328125 31.86328125 C-1.56821185 25.40709035 -3.05909021 21.34413888 -7.61328125 16.578125 C-15.04986829 11.66717129 -24.80817081 12.44281451 -30.92578125 19.265625 Z"/>
<path transform="translate(831.65625,478.90625)" fill="#6435E8" d="M0 0 C6.21343382 3.72806029 10.25941059 9.04162903 12.765625 15.7734375 C14.47013568 22.61451416 14.48064498 29.4969013 14.44140625 36.5 C14.4399913 37.4653064 14.43857635 38.43061279 14.43711853 39.4251709 C14.4315608 42.48139665 14.4190163 45.53754673 14.40625 48.59375 C14.40122953 50.67708227 14.39666758 52.7604157 14.39257812 54.84375 C14.38160524 59.92711209 14.36437011 65.01041826 14.34375 70.09375 C8.73375 70.09375 3.12375 70.09375 -2.65625 70.09375 C-3.93840938 67.52943124 -3.75349826 65.7478094 -3.71875 62.87890625 C-3.71012939 61.80858154 -3.70150879 60.73825684 -3.69262695 59.63549805 C-3.68062256 58.48734619 -3.66861816 57.33919434 -3.65625 56.15625 C-3.6213035 47.85903316 -3.61661431 39.57221842 -3.96875 31.28125 C-4.00258789 30.13765015 -4.00258789 30.13765015 -4.03710938 28.97094727 C-4.25714263 24.57378279 -4.94914396 21.60296153 -7.65625 18.09375 C-11.63801372 16.10286814 -16.32851299 16.56441658 -20.65625 17.09375 C-23.69152891 18.33763804 -26.27178756 19.83042335 -28.65625 22.09375 C-29.59962376 24.92387127 -29.77797829 26.63674918 -29.76977539 29.56518555 C-29.76966209 30.91624641 -29.76966209 30.91624641 -29.76954651 32.29460144 C-29.76438522 33.26343765 -29.75922394 34.23227386 -29.75390625 35.23046875 C-29.7524913 36.22504593 -29.75107635 37.21962311 -29.74961853 38.24433899 C-29.74401761 41.42333982 -29.73146496 44.60227043 -29.71875 47.78125 C-29.71373512 49.93554586 -29.70917219 52.08984282 -29.70507812 54.24414062 C-29.69404787 59.52737084 -29.67678262 64.81054851 -29.65625 70.09375 C-35.26625 70.09375 -40.87625 70.09375 -46.65625 70.09375 C-47.9688899 46.77095176 -47.75548217 23.44384235 -47.65625 0.09375 C-42.04625 0.09375 -36.43625 0.09375 -30.65625 0.09375 C-30.32625 1.74375 -29.99625 3.39375 -29.65625 5.09375 C-29.11355469 4.74441406 -28.57085938 4.39507812 -28.01171875 4.03515625 C-27.29628906 3.58011719 -26.58085938 3.12507813 -25.84375 2.65625 C-25.13605469 2.20378906 -24.42835938 1.75132812 -23.69921875 1.28515625 C-17.43476419 -2.36811075 -6.78433511 -2.31465551 0 0 Z"/>
<path transform="translate(566.11328125,484.40234375)" fill="#6231EA" d="M0 0 C2.27435758 1.92590528 3.68408537 3.87168725 4.88671875 6.59765625 C1.3931241 10.19400369 -2.22426256 13.43217592 -6.11328125 16.59765625 C-6.65597656 16.17613281 -7.19867187 15.75460937 -7.7578125 15.3203125 C-8.83095703 14.49853516 -8.83095703 14.49853516 -9.92578125 13.66015625 C-10.63347656 13.11488281 -11.34117187 12.56960938 -12.0703125 12.0078125 C-15.24427517 9.81698932 -17.91529706 9.44113223 -21.67578125 9.41015625 C-22.46082031 9.39597656 -23.24585938 9.38179688 -24.0546875 9.3671875 C-26.33763575 9.40598116 -26.33763575 9.40598116 -28.11328125 11.59765625 C-28.28009234 14.68113451 -28.28009234 14.68113451 -28.11328125 17.59765625 C-25.17362173 18.82686299 -22.2157557 19.90989698 -19.1875 20.89453125 C-0.47285142 27.03444656 -0.47285142 27.03444656 4.38671875 35.41015625 C6.85328105 41.16546828 6.65394486 46.79891798 4.82421875 52.72265625 C2.35482969 58.53093755 -1.94408644 62.3216593 -7.30078125 65.47265625 C-19.31704473 69.01843892 -29.95596663 67.74343642 -40.9140625 61.89453125 C-44.85974399 59.56777058 -47.5716684 57.41007552 -50.11328125 53.59765625 C-50.11328125 50.59765625 -50.11328125 50.59765625 -48.50390625 48.84375 C-47.7975 48.24691406 -47.09109375 47.65007813 -46.36328125 47.03515625 C-45.6671875 46.43574219 -44.97109375 45.83632813 -44.25390625 45.21875 C-42.26850162 43.71520452 -40.37573735 42.62187624 -38.11328125 41.59765625 C-37.68917969 41.99597656 -37.26507812 42.39429688 -36.828125 42.8046875 C-31.8048668 47.34218007 -27.3436877 50.26914034 -20.42578125 50.97265625 C-16.96283169 50.58062422 -15.59063309 49.97591402 -13.11328125 47.59765625 C-13.01509882 44.68388226 -13.01509882 44.68388226 -14.11328125 41.59765625 C-16.72056865 40.20089514 -18.8323051 39.32539339 -21.61328125 38.47265625 C-23.07989088 37.97010148 -24.54604078 37.46620296 -26.01171875 36.9609375 C-26.72038086 36.72584473 -27.42904297 36.49075195 -28.15917969 36.24853516 C-36.74274908 33.38949018 -41.89064197 30.16403318 -46.48828125 22.22265625 C-48.08109414 15.53284213 -47.66471411 9.59069921 -44.11328125 3.59765625 C-32.81780915 -9.45850095 -13.54280026 -9.61940612 0 0 Z"/>
<path transform="translate(335,459)" fill="#5F2EE9" d="M0 0 C2.86912909 0.09103685 5.70100779 0.23777556 8.5625 0.4375 C11.346875 0.623125 14.13125 0.80875 17 1 C17 7.6 17 14.2 17 21 C22.22100062 20.63163865 22.22100062 20.63163865 27.44116211 20.25170898 C29.29190666 20.12844889 31.14620522 20.062397 33 20 C34 21 34 21 34.09765625 24.37890625 C34.09191424 25.77347492 34.07890228 27.16801597 34.0625 28.5625 C34.041875 31.016875 34.02125 33.47125 34 36 C28.39 36 22.78 36 17 36 C17.09727073 40.30550953 17.20020324 44.61013043 17.31738281 48.91503906 C17.35551206 50.37752189 17.39039214 51.84009338 17.421875 53.30273438 C17.46787711 55.41308132 17.52580941 57.52282634 17.5859375 59.6328125 C17.63306885 61.53377686 17.63306885 61.53377686 17.68115234 63.47314453 C17.9977203 66.97478363 18.63394961 69.76602286 20 73 C24.26159382 75.13079691 30.40763702 74.04502317 35 74 C35 79.28 35 84.56 35 90 C26.64561139 92.38696817 18.88220495 93.5707781 10.7109375 89.96875 C5.17583924 86.83472176 2.14385829 81.81355659 0 76 C-0.49386117 72.80416337 -0.47055253 69.69626254 -0.390625 66.46875 C-0.38496521 65.59222778 -0.37930542 64.71570557 -0.37347412 63.81262207 C-0.35126636 61.04116812 -0.3011016 58.27105635 -0.25 55.5 C-0.22991474 53.60939381 -0.21166754 51.71876714 -0.1953125 49.828125 C-0.15145307 45.21824094 -0.08253652 40.6093472 0 36 C-0.78246094 36.01160156 -1.56492187 36.02320313 -2.37109375 36.03515625 C-3.38300781 36.04417969 -4.39492188 36.05320312 -5.4375 36.0625 C-6.44683594 36.07410156 -7.45617187 36.08570313 -8.49609375 36.09765625 C-11 36 -11 36 -12 35 C-12.07271741 32.64686445 -12.08370868 30.29166332 -12.0625 27.9375 C-12.05347656 26.64714844 -12.04445313 25.35679687 -12.03515625 24.02734375 C-12.02355469 23.02832031 -12.01195312 22.02929688 -12 21 C-8.26562152 20.12132271 -4.83225427 19.91087781 -1 20 C-1.00523682 19.42967041 -1.01047363 18.85934082 -1.01586914 18.27172852 C-1.03658221 15.70199677 -1.0496419 13.13228253 -1.0625 10.5625 C-1.07087891 9.66466797 -1.07925781 8.76683594 -1.08789062 7.84179688 C-1.09111328 6.98779297 -1.09433594 6.13378906 -1.09765625 5.25390625 C-1.10289307 4.46314697 -1.10812988 3.6723877 -1.11352539 2.85766602 C-1 1 -1 1 0 0 Z"/>
<path transform="translate(933,460)" fill="#673AE8" d="M0 0 C5.94 0 11.88 0 18 0 C18 6.6 18 13.2 18 20 C23.28 20 28.56 20 34 20 C34 24.95 34 29.9 34 35 C28.72 35 23.44 35 18 35 C18.21682333 39.93081764 18.4421541 44.85966942 18.68969727 49.78881836 C18.7712927 51.46566139 18.847825 53.14275877 18.91918945 54.82006836 C19.02265424 57.23115468 19.144299 59.64073968 19.26953125 62.05078125 C19.29779495 62.80087967 19.32605865 63.55097809 19.35517883 64.32380676 C19.58596131 68.3927753 19.58596131 68.3927753 21.36328125 71.97851562 C23.93148094 73.58134192 26.20860693 73.28359332 29.1875 73.1875 C30.81751953 73.14689453 30.81751953 73.14689453 32.48046875 73.10546875 C33.31191406 73.07066406 34.14335938 73.03585937 35 73 C35.77217401 76.44080741 36.16082958 79.66167111 36.1875 83.1875 C36.20167969 84.04730469 36.21585938 84.90710938 36.23046875 85.79296875 C36 88 36 88 34 90 C30.98260234 90.50130184 27.92930811 90.41673809 24.875 90.4375 C24.04484375 90.47037109 23.2146875 90.50324219 22.359375 90.53710938 C15.99650736 90.59196168 11.95606219 88.97239931 7 85 C2.37245516 80.37245516 0.93212585 75.10553735 0.77294922 68.71704102 C0.77326139 67.1459605 0.78429165 65.5748544 0.8046875 64.00390625 C0.8075174 63.17036118 0.81034729 62.3368161 0.81326294 61.47801208 C0.82437711 58.8393564 0.84946485 56.20105152 0.875 53.5625 C0.88504115 51.76367681 0.89416501 49.96484825 0.90234375 48.16601562 C0.92428765 43.77721045 0.95875613 39.38866452 1 35 C0.21753906 35.01160156 -0.56492187 35.02320313 -1.37109375 35.03515625 C-2.38300781 35.04417969 -3.39492188 35.05320312 -4.4375 35.0625 C-5.44683594 35.07410156 -6.45617187 35.08570313 -7.49609375 35.09765625 C-10 35 -10 35 -11 34 C-11.07271741 31.64686445 -11.08370868 29.29166332 -11.0625 26.9375 C-11.05347656 25.64714844 -11.04445313 24.35679687 -11.03515625 23.02734375 C-11.02355469 22.02832031 -11.01195312 21.02929688 -11 20 C-7.04 20 -3.08 20 1 20 C0.67 19.01 0.34 18.02 0 17 C-0.07973476 15.66474283 -0.10771338 14.32587917 -0.09765625 12.98828125 C-0.09515869 12.30548096 -0.09266113 11.62268066 -0.09008789 10.91918945 C-0.07643188 9.62887817 -0.07643188 9.62887817 -0.0625 8.3125 C-0.0315625 4.1978125 -0.0315625 4.1978125 0 0 Z"/>
<path transform="translate(580,451)" fill="#602EED" d="M0 0 C5.61 0 11.22 0 17 0 C17.17233928 9.20823418 17.33923727 18.41655674 17.5 27.625 C17.51781588 28.64515953 17.51781588 28.64515953 17.53599167 29.68592834 C17.93157363 52.45858568 18.1425163 75.22370294 18 98 C14.9020403 99.54897985 11.73783448 98.83239539 8.375 98.5625 C7.66859375 98.51029297 6.9621875 98.45808594 6.234375 98.40429688 C4.48920013 98.27458793 2.74454275 98.13795046 1 98 C0.15090215 74.54141374 -0.09204297 51.0968915 -0.0625 27.625 C-0.06164398 26.94005966 -0.06078796 26.25511932 -0.05990601 25.54942322 C-0.04847522 17.0329224 -0.02755451 8.51646372 0 0 Z"/>
<path transform="translate(580,451)" fill="#6C4ED5" d="M0 0 C5.61 0 11.22 0 17 0 C17.17233928 9.20823418 17.33923727 18.41655674 17.5 27.625 C17.51781588 28.64515953 17.51781588 28.64515953 17.53599167 29.68592834 C17.93157363 52.45858568 18.1425163 75.22370294 18 98 C14.9020403 99.54897985 11.73783448 98.83239539 8.375 98.5625 C7.66859375 98.51029297 6.9621875 98.45808594 6.234375 98.40429688 C4.48920013 98.27458793 2.74454275 98.13795046 1 98 C0.15090215 74.54141374 -0.09204297 51.0968915 -0.0625 27.625 C-0.06164398 26.94005966 -0.06078796 26.25511932 -0.05990601 25.54942322 C-0.04847522 17.0329224 -0.02755451 8.51646372 0 0 Z M3 3 C3 33.69 3 64.38 3 96 C7.29 96 11.58 96 16 96 C16.02314534 84.31727359 16.04092631 72.63455262 16.05181217 60.95180798 C16.05703618 55.52735269 16.06412514 50.10291307 16.07543945 44.6784668 C16.08628537 39.44598041 16.09228047 34.2135091 16.09487724 28.98101234 C16.0967284 26.98228022 16.10034313 24.98354895 16.10573006 22.98482323 C16.11296306 20.19062881 16.11398998 17.39649715 16.11352539 14.60229492 C16.11712067 13.77151428 16.12071594 12.94073364 16.12442017 12.08477783 C16.1184839 8.79680567 16.04726152 6.14178456 15 3 C11.04 3 7.08 3 3 3 Z"/>
<path transform="translate(784,479)" fill="#7455DC" d="M0 0 C5.61 0 11.22 0 17 0 C17.33 1.65 17.66 3.3 18 5 C17.34 5.66 16.68 6.32 16 7 C15.67 5.68 15.34 4.36 15 3 C11.04 3 7.08 3 3 3 C3 24.45 3 45.9 3 68 C6.96 68 10.92 68 15 68 C15 53.15 15 38.3 15 23 C15.33 23 15.66 23 16 23 C16.06058594 24.26457031 16.12117187 25.52914063 16.18359375 26.83203125 C16.26800904 28.49219871 16.35265655 30.15235437 16.4375 31.8125 C16.47681641 32.64587891 16.51613281 33.47925781 16.55664062 34.33789062 C16.59853516 35.14033203 16.64042969 35.94277344 16.68359375 36.76953125 C16.72025146 37.50792236 16.75690918 38.24631348 16.79467773 39.00708008 C16.94842141 41.207495 16.94842141 41.207495 18 44 C18.08291953 45.9920303 18.10738177 47.98673713 18.09765625 49.98046875 C18.09443359 51.14384766 18.09121094 52.30722656 18.08789062 53.50585938 C18.07951172 54.72080078 18.07113281 55.93574219 18.0625 57.1875 C18.05798828 58.41404297 18.05347656 59.64058594 18.04882812 60.90429688 C18.03703076 63.93621865 18.01909514 66.9681154 18 70 C12.39 70 6.78 70 1 70 C-0.3126399 46.67720176 -0.09923217 23.35009235 0 0 Z"/>
<path transform="translate(923,494)" fill="#6A50CE" d="M0 0 C4.29 0 8.58 0 13 0 C13.01458252 1.04341553 13.02916504 2.08683105 13.04418945 3.16186523 C13.10260393 7.07039949 13.17983007 10.97838335 13.26245117 14.88647461 C13.29549913 16.57095337 13.3235923 18.2555375 13.34643555 19.94018555 C13.39843509 36.87522659 13.39843509 36.87522659 22 51 C25.24968331 52.62484165 28.85921167 52.34043966 32.4375 52.5 C40.5969559 52.86565197 40.5969559 52.86565197 44 54 C44 49.71 44 45.42 44 41 C40.37 41 36.74 41 33 41 C33 40.67 33 40.34 33 40 C38.94 39.505 38.94 39.505 45 39 C45.73112493 42.65562464 46.15990093 45.53890323 46.1875 49.1875 C46.20167969 50.04730469 46.21585938 50.90710938 46.23046875 51.79296875 C46 54 46 54 44 56 C40.98260234 56.50130184 37.92930811 56.41673809 34.875 56.4375 C34.04484375 56.47037109 33.2146875 56.50324219 32.359375 56.53710938 C25.99650736 56.59196168 21.95606219 54.97239931 17 51 C12.37245516 46.37245516 10.93212585 41.10553735 10.77294922 34.71704102 C10.77326139 33.1459605 10.78429165 31.5748544 10.8046875 30.00390625 C10.8075174 29.17036118 10.81034729 28.3368161 10.81326294 27.47801208 C10.82437711 24.8393564 10.84946485 22.20105152 10.875 19.5625 C10.88504115 17.76367681 10.89416501 15.96484825 10.90234375 14.16601562 C10.92428765 9.77721045 10.95875613 5.38866452 11 1 C7.37 1 3.74 1 0 1 C0 0.67 0 0.34 0 0 Z"/>
<path transform="translate(335,459)" fill="#6448CA" d="M0 0 C2.86912909 0.09103685 5.70100779 0.23777556 8.5625 0.4375 C11.346875 0.623125 14.13125 0.80875 17 1 C17 7.6 17 14.2 17 21 C16.67 21 16.34 21 16 21 C15.67 15.39 15.34 9.78 15 4 C10.71 3.67 6.42 3.34 2 3 C2.01160156 4.35996094 2.02320313 5.71992188 2.03515625 7.12109375 C2.04453262 8.8932278 2.05363298 10.66536333 2.0625 12.4375 C2.07087891 13.33533203 2.07925781 14.23316406 2.08789062 15.15820312 C2.09111328 16.01220703 2.09433594 16.86621094 2.09765625 17.74609375 C2.10289307 18.53685303 2.10812988 19.3276123 2.11352539 20.14233398 C2 22 2 22 1 23 C-0.85287502 23.07226502 -2.70833878 23.0838122 -4.5625 23.0625 C-5.57441406 23.05347656 -6.58632813 23.04445313 -7.62890625 23.03515625 C-8.41136719 23.02355469 -9.19382812 23.01195312 -10 23 C-10 26.3 -10 29.6 -10 33 C-6.37 33 -2.74 33 1 33 C1 47.19 1 61.38 1 76 C0.67 76 0.34 76 0 76 C0 62.8 0 49.6 0 36 C-3.63 36 -7.26 36 -11 36 C-12 35 -12 35 -12.09765625 31.83984375 C-12.08025391 29.90818359 -12.08025391 29.90818359 -12.0625 27.9375 C-12.05347656 26.64714844 -12.04445313 25.35679687 -12.03515625 24.02734375 C-12.02355469 23.02832031 -12.01195312 22.02929688 -12 21 C-8.26562152 20.12132271 -4.83225427 19.91087781 -1 20 C-1.00523682 19.42967041 -1.01047363 18.85934082 -1.01586914 18.27172852 C-1.03658221 15.70199677 -1.0496419 13.13228253 -1.0625 10.5625 C-1.07087891 9.66466797 -1.07925781 8.76683594 -1.08789062 7.84179688 C-1.09111328 6.98779297 -1.09433594 6.13378906 -1.09765625 5.25390625 C-1.10289307 4.46314697 -1.10812988 3.6723877 -1.11352539 2.85766602 C-1 1 -1 1 0 0 Z"/>
<path transform="translate(154,545)" fill="#6D4AD4" d="M0 0 C0.99 0.33 1.98 0.66 3 1 C-7.91013091 10.38165846 -19.67366266 14.3975236 -34 14.375 C-34.91048096 14.37556396 -35.82096191 14.37612793 -36.7590332 14.37670898 C-45.56943627 14.23571172 -55.0156717 12.99216415 -63 9 C-63 8.01 -63 7.02 -63 6 C-59.51443099 6.43569613 -56.78135115 7.09621539 -53.546875 8.51953125 C-48.03459324 10.62146865 -42.58102958 10.43815194 -36.75 10.375 C-35.16638672 10.39240234 -35.16638672 10.39240234 -33.55078125 10.41015625 C-23.42862007 10.37298797 -13.98845252 8.88083132 -5.4375 3.25 C-2.49609375 1.328125 -2.49609375 1.328125 0 0 Z"/>
<path transform="translate(413,493)" fill="#927AD5" d="M0 0 C2.75 -0.3125 2.75 -0.3125 6 0 C8.63121627 2.18039492 9.85197241 3.97553121 10.34484863 7.3866272 C10.46397016 10.40775552 10.44906676 13.40284552 10.390625 16.42578125 C10.38496521 17.52850876 10.37930542 18.63123627 10.37347412 19.76737976 C10.3511175 23.28286492 10.30092021 26.79732387 10.25 30.3125 C10.22993418 32.69855297 10.21168355 35.08462194 10.1953125 37.47070312 C10.15125467 43.31419635 10.08223002 49.15692429 10 55 C14.95 55 19.9 55 25 55 C24.67 36.85 24.34 18.7 24 0 C24.33 0 24.66 0 25 0 C25.77669305 3.46270279 26.14373201 6.70342882 26.20532227 10.24926758 C26.22526749 11.26994827 26.24521271 12.29062897 26.26576233 13.34223938 C26.28247482 14.4319957 26.29918732 15.52175201 26.31640625 16.64453125 C26.33718735 17.7694548 26.35796844 18.89437836 26.37937927 20.0533905 C26.44465792 23.6396994 26.50365899 27.22608027 26.5625 30.8125 C26.60570583 33.24675217 26.64932078 35.68099712 26.69335938 38.11523438 C26.8003171 44.07674728 26.9021235 50.03833146 27 56 C23.30691024 57.23102992 20.11949288 56.87175152 16.3125 56.5625 C15.2596582 56.48418945 15.2596582 56.48418945 14.18554688 56.40429688 C12.45661946 56.27492135 10.72824645 56.13817469 9 56 C8.970271 54.10894531 8.970271 54.10894531 8.93994141 52.1796875 C8.86352478 47.47555508 8.7748643 42.77171751 8.68261719 38.06787109 C8.64447584 36.03700609 8.6095978 34.00607695 8.578125 31.97509766 C8.5321506 29.04566619 8.47421109 26.11667067 8.4140625 23.1875 C8.40251129 22.28821777 8.39096008 21.38893555 8.37905884 20.46240234 C8.23694171 11.28309683 8.23694171 11.28309683 4.5625 3.125 C3.06654403 2.0479117 1.53377441 1.02251627 0 0 Z"/>
<path transform="translate(394,499)" fill="#4013D7" d="M0 0 C0.66 0.33 1.32 0.66 2 1 C1.67 16.84 1.34 32.68 1 49 C-3.95 49 -8.9 49 -14 49 C-14 34.48 -14 19.96 -14 5 C-13.67 5 -13.34 5 -13 5 C-13 18.86 -13 32.72 -13 47 C-9.04 47 -5.08 47 -1 47 C-1.00523682 45.64729004 -1.01047363 44.29458008 -1.01586914 42.90087891 C-1.03393198 37.89518899 -1.04543674 32.88950197 -1.05493164 27.88378906 C-1.05996891 25.71483883 -1.06679891 23.545892 -1.07543945 21.37695312 C-1.08753151 18.26431437 -1.09323428 15.1517204 -1.09765625 12.0390625 C-1.10281754 11.065065 -1.10797882 10.0910675 -1.11329651 9.08755493 C-1.11337204 8.18677216 -1.11344757 7.28598938 -1.11352539 6.35791016 C-1.115746 5.56293121 -1.11796661 4.76795227 -1.12025452 3.94888306 C-1 2 -1 2 0 0 Z"/>
<path transform="translate(902,481)" fill="#9F87E0" d="M0 0 C7.07091351 3.31900022 11.86961969 8.20275676 15.0703125 15.41015625 C17.71723268 23.10678336 18 29.63807485 18 38 C2.16 38 -13.68 38 -30 38 C-29.67 39.32 -29.34 40.64 -29 42 C-29.66 41.67 -30.32 41.34 -31 41 C-31 39.68 -31 38.36 -31 37 C-15.16 37 0.68 37 17 37 C16.01 30.565 16.01 30.565 15 24 C14.34 24 13.68 24 13 24 C12.7215625 22.0509375 12.7215625 22.0509375 12.4375 20.0625 C11.02959422 13.65095784 7.13792605 8.21306364 1.7734375 4.4296875 C1.18820312 3.95789063 0.60296875 3.48609375 0 3 C0 2.01 0 1.02 0 0 Z"/>
<path transform="translate(949,481)" fill="#4D1DDD" d="M0 0 C5.61 0 11.22 0 17 0 C17 4.29 17 8.58 17 13 C11.72 13 6.44 13 1 13 C1.33 25.21 1.66 37.42 2 50 C0 49 0 49 -0.61669922 47.41088867 C-1.14591333 44.08223305 -1.14255837 40.78662603 -1.1328125 37.42578125 C-1.13376923 36.70134323 -1.13472595 35.97690521 -1.13571167 35.23051453 C-1.13639033 33.70502637 -1.134558 32.17953529 -1.13037109 30.65405273 C-1.124995 28.31031899 -1.13033859 25.96677486 -1.13671875 23.62304688 C-1.13605837 22.14062458 -1.13477804 20.65820239 -1.1328125 19.17578125 C-1.13483673 18.47165604 -1.13686096 17.76753082 -1.13894653 17.04206848 C-1.11496776 12.11496776 -1.11496776 12.11496776 0 11 C2.53049402 10.92686433 5.03304837 10.90752473 7.5625 10.9375 C8.27341797 10.94201172 8.98433594 10.94652344 9.71679688 10.95117188 C11.47790013 10.96299136 13.23896036 10.98092737 15 11 C15 7.7 15 4.4 15 1 C10.05 1 5.1 1 0 1 C0 0.67 0 0.34 0 0 Z"/>
<path transform="translate(370,533)" fill="#6F53CD" d="M0 0 C0 5.28 0 10.56 0 16 C-9.46892767 18.70540791 -17.02054044 19.32344349 -26 15 C-26.33 14.34 -26.66 13.68 -27 13 C-25.824375 13.165 -24.64875 13.33 -23.4375 13.5 C-16.64630549 14.27271604 -9.82362061 14.0809125 -3 14 C-2.67 10.7 -2.34 7.4 -2 4 C-3.13888672 4.05220703 -3.13888672 4.05220703 -4.30078125 4.10546875 C-5.29464844 4.13253906 -6.28851563 4.15960937 -7.3125 4.1875 C-8.29863281 4.22230469 -9.28476562 4.25710938 -10.30078125 4.29296875 C-13 4 -13 4 -14.85546875 2.48828125 C-15.23316406 1.99714844 -15.61085938 1.50601563 -16 1 C-13.70839646 0.83246763 -11.41671509 0.66599948 -9.125 0.5 C-7.84882813 0.4071875 -6.57265625 0.314375 -5.2578125 0.21875 C-3.50763316 0.10123196 -1.75412035 0 0 0 Z"/>
<path transform="translate(269,534)" fill="#6E4ED3" d="M0 0 C0.66 0 1.32 0 2 0 C1.48473703 4.83059038 -0.82218794 8.2712496 -3.5 12.1875 C-4.17385742 13.18160889 -4.17385742 13.18160889 -4.86132812 14.19580078 C-11.72764348 24.14036932 -21.21459225 36.9879463 -33 41 C-33 40.01 -33 39.02 -33 38 C-32.01 38 -31.02 38 -30 38 C-29.67 37.01 -29.34 36.02 -29 35 C-27.25 33.52734375 -27.25 33.52734375 -25 31.9375 C-18.54942751 27.08156664 -12.91762422 21.19802794 -8.5625 14.375 C-8.046875 13.59125 -7.53125 12.8075 -7 12 C-6.34 12 -5.68 12 -5 12 C-4.9175 11.319375 -4.835 10.63875 -4.75 9.9375 C-3.77667472 6.1253093 -2.04192545 3.35929671 0 0 Z"/>
<path transform="translate(134.625,445.5625)" fill="#643CDB" d="M0 0 C0.88228271 -0.00999023 1.76456543 -0.01998047 2.67358398 -0.03027344 C8.74624893 0.04908557 13.73533832 1.24187882 19.375 3.4375 C20.365 3.7675 21.355 4.0975 22.375 4.4375 C22.375 5.4275 22.375 6.4175 22.375 7.4375 C21.7459375 7.23253906 21.116875 7.02757812 20.46875 6.81640625 C15.13283272 5.13687807 9.98056731 3.77942924 4.375 3.4375 C3.54355469 3.38464844 2.71210938 3.33179688 1.85546875 3.27734375 C-6.0881538 3.01596561 -14.45880035 3.88883632 -21.3515625 8.10546875 C-22.10179688 8.54503906 -22.85203125 8.98460937 -23.625 9.4375 C-24.285 9.1075 -24.945 8.7775 -25.625 8.4375 C-18.53523502 0.78505526 -9.97024175 0.06633445 0 0 Z"/>
<path transform="translate(916,502)" fill="#3E17C6" d="M0 0 C2 3 2 3 3 16 C-12.84 16 -28.68 16 -45 16 C-45 15.34 -45 14.68 -45 14 C-29.82 14 -14.64 14 1 14 C0.67 9.38 0.34 4.76 0 0 Z"/>
<path transform="translate(760,479)" fill="#765AD5" d="M0 0 C5.94 0 11.88 0 18 0 C16.31205041 9.51389771 13.6488796 18.71881118 11 28 C10.67 28 10.34 28 10 28 C10 25.03 10 22.06 10 19 C10.66 19 11.32 19 12 19 C12.06058594 18.09636719 12.12117187 17.19273437 12.18359375 16.26171875 C12.26738281 15.08222656 12.35117187 13.90273438 12.4375 12.6875 C12.51871094 11.51574219 12.59992187 10.34398437 12.68359375 9.13671875 C13 6 13 6 14 3 C10.04 3 6.08 3 2 3 C2 3.66 2 4.32 2 5 C1.34 5 0.68 5 0 5 C-0.33 5.66 -0.66 6.32 -1 7 C-0.67 4.69 -0.34 2.38 0 0 Z"/>
<path transform="translate(289,476)" fill="#6A4AD4" d="M0 0 C5.74392061 4.92336053 8.6658899 11.74009628 9.25 19.1875 C8.67931836 27.89039503 5.52004754 34.15298962 -1 40 C-3.22265625 41.22265625 -3.22265625 41.22265625 -5 42 C-4.875 40.3125 -4.875 40.3125 -4 38 C-2.50165748 36.79481145 -1.00293445 35.5900823 0.5 34.390625 C4.72813738 30.4707893 5.23341334 25.65954202 5.5 20.1875 C5.3888436 14.65052171 3.92105399 10.86842331 1.09375 6.15625 C0 4 0 4 0 0 Z"/>
<path transform="translate(903,527)" fill="#6749CE" d="M0 0 C3.85025879 0.60355408 6.86101159 1.76772603 10.3125 3.5625 C11.19550781 4.01753906 12.07851563 4.47257813 12.98828125 4.94140625 C13.98408203 5.46541016 13.98408203 5.46541016 15 6 C14.07920613 11.7379997 11.54127108 15.06308578 6.99609375 18.52734375 C3.10253292 21.11588051 3.10253292 21.11588051 1 22 C0.01 21.67 -0.98 21.34 -2 21 C-0.1210827 18.80792981 1.3481593 17.83317367 4 16.5625 C7.06384219 14.96674886 8.30102165 13.95085713 10 11 C10.70514846 8.85266073 10.70514846 8.85266073 11 7 C7.17679443 5.57741188 4.08718695 4.75957724 0 5 C-0.33 5.66 -0.66 6.32 -1 7 C-1.66 7 -2.32 7 -3 7 C-2.38722388 4.03824877 -1.74627478 2.61941217 0 0 Z"/>
<path transform="translate(520,492)" fill="#6849D0" d="M0 0 C2.10942004 3.16413005 2.25442187 4.22453304 2.4375 7.875 C2.7640294 12.02313275 3.53198832 14.56624463 6 18 C6 18.66 6 19.32 6 20 C10.52317379 22.42352769 15.37413738 23.9714681 20.19921875 25.68359375 C21.12347656 26.11800781 22.04773438 26.55242188 23 27 C23.33 27.99 23.66 28.98 24 30 C14.2767444 27.67907823 6.98591704 25.38028385 1 17 C-1.50917948 12.57906472 -1.39958238 7.96225559 -1 3 C-0.67 2.01 -0.34 1.02 0 0 Z"/>
<path transform="translate(718,479)" fill="#8569DD" d="M0 0 C5.61 0 11.22 0 17 0 C19.24483978 5.86903893 21.31654648 11.77131121 23.25 17.75 C23.53101563 18.58660156 23.81203125 19.42320312 24.1015625 20.28515625 C24.49214844 21.49751953 24.49214844 21.49751953 24.890625 22.734375 C25.24688965 23.82057129 25.24688965 23.82057129 25.61035156 24.92871094 C26.05153517 27.27395014 25.73809479 28.75279889 25 31 C23.515 27.535 23.515 27.535 22 24 C21.67 24 21.34 24 21 24 C20.13372595 21.08644159 19.28168994 18.16995672 18.4375 15.25 C18.19064453 14.425 17.94378906 13.6 17.68945312 12.75 C17.34624023 11.55117188 17.34624023 11.55117188 16.99609375 10.328125 C16.78138428 9.5949707 16.5666748 8.86181641 16.34545898 8.10644531 C15.96085328 5.76130184 16.27121236 4.24174192 17 2 C14.37335097 2.0867572 11.75021918 2.19357981 9.125 2.3125 C8.00544922 2.34633789 8.00544922 2.34633789 6.86328125 2.38085938 C4.900396 2.47811945 2.94671678 2.73042294 1 3 C0.34 3.99 -0.32 4.98 -1 6 C-0.67 4.02 -0.34 2.04 0 0 Z"/>
<path transform="translate(241,419)" fill="#BBAED4" d="M0 0 C0.33 0 0.66 0 1 0 C1.01417969 0.79664063 1.02835938 1.59328125 1.04296875 2.4140625 C1.12486246 9.49712735 1.12486246 9.49712735 4.625 15.3125 C5.40875 16.199375 6.1925 17.08625 7 18 C6.82661738 19.60111357 6.63218679 21.20229997 6.34179688 22.78637695 C5.62035027 27.45877437 5.61617222 32.21879602 5.4375 36.9375 C5.37272461 38.53561523 5.37272461 38.53561523 5.30664062 40.16601562 C5.20125511 42.77723443 5.09912912 45.38853746 5 48 C4.01 48.495 4.01 48.495 3 49 C3.02094727 48.09757568 3.04189453 47.19515137 3.06347656 46.26538086 C3.13199232 42.8901125 3.18196284 39.51559204 3.21972656 36.13989258 C3.23973822 34.68404416 3.26695677 33.22827506 3.30175781 31.77270508 C3.62845716 20.76938769 3.62845716 20.76938769 -1 11 C-1.42578125 8.41796875 -1.42578125 8.41796875 -1.3125 6.1875 C-1.28800781 5.43855469 -1.26351562 4.68960937 -1.23828125 3.91796875 C-1 2 -1 2 0 0 Z"/>
<path transform="translate(969,534)" fill="#624BC1" d="M0 0 C0.05384521 2.29141286 0.09272087 4.58318188 0.125 6.875 C0.14820313 8.15117188 0.17140625 9.42734375 0.1953125 10.7421875 C0 14 0 14 -2 16 C-3.97119141 16.22705078 -3.97119141 16.22705078 -6.3515625 16.1953125 C-7.20234375 16.18886719 -8.053125 16.18242188 -8.9296875 16.17578125 C-10.26386719 16.15064453 -10.26386719 16.15064453 -11.625 16.125 C-12.97078125 16.11146484 -12.97078125 16.11146484 -14.34375 16.09765625 C-16.56276586 16.0740497 -18.78125077 16.0411231 -21 16 C-21 15.01 -21 14.02 -21 13 C-18.39576408 12.97302863 -15.79180756 12.95317511 -13.1875 12.9375 C-12.44951172 12.92912109 -11.71152344 12.92074219 -10.95117188 12.91210938 C-7.70077932 12.89740172 -5.10595105 12.96468298 -2 14 C-2 9.71 -2 5.42 -2 1 C-5.63 1 -9.26 1 -13 1 C-13 0.67 -13 0.34 -13 0 C-11.39679026 -0.19551338 -9.79237014 -0.38111983 -8.1875 -0.5625 C-7.29417969 -0.66691406 -6.40085937 -0.77132812 -5.48046875 -0.87890625 C-3 -1 -3 -1 0 0 Z"/>
<path transform="translate(676,479)" fill="#886CDC" d="M0 0 C5.61 0 11.22 0 17 0 C19.00567098 5.01417745 20.6949057 10.07715159 22.25 15.25 C22.60578125 16.43078125 22.9615625 17.6115625 23.328125 18.828125 C23.95641463 21.79423652 24.07185551 23.22416907 23 26 C22.34 24.68 21.68 23.36 21 22 C20.67 22 20.34 22 20 22 C19.30259196 19.23132003 18.61677147 16.46063138 17.9375 13.6875 C17.73833984 12.90181641 17.53917969 12.11613281 17.33398438 11.30664062 C17.15029297 10.54931641 16.96660156 9.79199219 16.77734375 9.01171875 C16.60452881 8.31522217 16.43171387 7.61872559 16.25366211 6.90112305 C16 5 16 5 17 2 C11.72 2 6.44 2 1 2 C0.67 2.99 0.34 3.98 0 5 C0 3.35 0 1.7 0 0 Z"/>
<path transform="translate(619,543)" fill="#876FD0" d="M0 0 C3.51705958 0.65271556 6.89325077 1.51393024 10.3125 2.5625 C11.19550781 2.83191406 12.07851563 3.10132813 12.98828125 3.37890625 C13.65214844 3.58386719 14.31601562 3.78882813 15 4 C15 4.66 15 5.32 15 6 C17.7084017 6.02714434 20.41652721 6.04690846 23.125 6.0625 C23.88554688 6.07087891 24.64609375 6.07925781 25.4296875 6.08789062 C29.7389644 6.10646509 33.75516474 5.86117265 38 5 C34.17873885 8.82126115 28.39820995 9.13797861 23.1875 9.3125 C14.28308946 9.09331451 6.81346785 6.75359507 0 1 C0 0.67 0 0.34 0 0 Z"/>
<path transform="translate(656,504)" fill="#8161DF" d="M0 0 C0.66 0.33 1.32 0.66 2 1 C2.22702385 4.22813558 2.42828723 7.45738689 2.625 10.6875 C2.68945312 11.59951172 2.75390625 12.51152344 2.8203125 13.45117188 C3.31559233 21.96379393 3.31559233 21.96379393 1 26 C-2.9460896 30.09786227 -8.50592142 30.89813381 -13.96484375 31.12109375 C-16.64652048 31.12454507 -19.31991503 31.08867928 -22 31 C-22.33 30.01 -22.66 29.02 -23 28 C-22.28714844 28.10699219 -21.57429687 28.21398437 -20.83984375 28.32421875 C-14.53895781 29.11288953 -10.48160089 29.35608218 -5 26 C-1.48661927 22.2092471 0.13181138 19.77170736 0.09765625 14.6484375 C0.09443359 13.79765625 0.09121094 12.946875 0.08789062 12.0703125 C0.07951172 11.18085937 0.07113281 10.29140625 0.0625 9.375 C0.05798828 8.4778125 0.05347656 7.580625 0.04882812 6.65625 C0.03702591 4.43743352 0.02056155 2.21874982 0 0 Z"/>
<path transform="translate(136,499)" fill="#6C4DD3" d="M0 0 C2 2 2 2 2.375 5.1875 C1.79108252 11.12399442 -0.26037178 14.49759381 -4.75 18.375 C-9.84753068 20.92376534 -13.88390315 21.50016835 -19.4375 20.1875 C-22 19 -22 19 -23 17 C-21.69675781 17.06960938 -21.69675781 17.06960938 -20.3671875 17.140625 C-13.01811889 17.64121841 -13.01811889 17.64121841 -6.3125 15.1875 C-3.85773449 13.02847579 -3.85773449 13.02847579 -2 10 C-1.34 10 -0.68 10 0 10 C0 6.7 0 3.4 0 0 Z"/>
<path transform="translate(263,436)" fill="#6B45DB" d="M0 0 C0 0.99 0 1.98 0 3 C-0.33 3.33 -0.66 3.66 -1 4 C-1.01672261 5.78293062 -0.96282927 7.56662336 -0.87890625 9.34765625 C-0.83056641 10.42724609 -0.78222656 11.50683594 -0.73242188 12.61914062 C-0.67634766 13.75544922 -0.62027344 14.89175781 -0.5625 16.0625 C-0.51029297 17.20267578 -0.45808594 18.34285156 -0.40429688 19.51757812 C-0.27415067 22.34530023 -0.13917121 25.17271 0 28 C2.97 28.33 5.94 28.66 9 29 C9 29.33 9 29.66 9 30 C7.37675914 30.22162329 5.751279 30.42689803 4.125 30.625 C2.76761719 30.79902344 2.76761719 30.79902344 1.3828125 30.9765625 C0.20332031 30.98816406 0.20332031 30.98816406 -1 31 C-3.34354119 28.65645881 -3.28663449 28.08277732 -3.44921875 24.89453125 C-3.49240234 24.07533203 -3.53558594 23.25613281 -3.58007812 22.41210938 C-3.61552734 21.55423828 -3.65097656 20.69636719 -3.6875 19.8125 C-3.73455078 18.97396484 -3.78160156 18.13542969 -3.83007812 17.27148438 C-4.42550022 4.76762028 -4.42550022 4.76762028 -1.4375 1.0625 C-0.7259375 0.5365625 -0.7259375 0.5365625 0 0 Z"/>
<path transform="translate(367,479)" fill="#927ADE" d="M0 0 C0.66 0.33 1.32 0.66 2 1 C2 5.95 2 10.9 2 16 C-3.61 16 -9.22 16 -15 16 C-14.87970068 20.30517993 -14.75687101 24.61013755 -14.62768555 28.91503906 C-14.58454663 30.37756148 -14.54285805 31.84012747 -14.50268555 33.30273438 C-14.4444693 35.4128936 -14.38092712 37.52283775 -14.31640625 39.6328125 C-14.27974854 40.90012207 -14.24309082 42.16743164 -14.20532227 43.47314453 C-14.01628964 46.72019016 -13.6037927 49.80698948 -13 53 C-14.32 52.34 -15.64 51.68 -17 51 C-16.67 39.12 -16.34 27.24 -16 15 C-10.39 15 -4.78 15 1 15 C0.67 10.05 0.34 5.1 0 0 Z"/>
<path transform="translate(761,531)" fill="#4E2EC3" d="M0 0 C1.23853632 3.61094391 0.79209453 6.40571952 0.125 10.125 C-0.05804687 11.17945313 -0.24109375 12.23390625 -0.4296875 13.3203125 C-1 16 -1 16 -2 18 C-8.6 18 -15.2 18 -22 18 C-22 15.69 -22 13.38 -22 11 C-20 13 -20 13 -20 16 C-14.72 16 -9.44 16 -4 16 C-3.71125 14.47375 -3.4225 12.9475 -3.125 11.375 C-2.34702314 7.4628878 -1.38176148 3.75049545 0 0 Z"/>
<path transform="translate(413,493)" fill="#856BD7" d="M0 0 C2.75 -0.3125 2.75 -0.3125 6 0 C8.6588133 2.18657898 9.85667706 3.99195775 10.34484863 7.42544556 C10.46404955 10.50638974 10.44902634 13.5618094 10.390625 16.64453125 C10.38496521 17.7694548 10.37930542 18.89437836 10.37347412 20.0533905 C10.35111468 23.64019634 10.30091667 27.22599696 10.25 30.8125 C10.22993455 33.24673035 10.21168386 35.68097638 10.1953125 38.11523438 C10.15125123 44.07716489 10.08434243 50.03851062 10 56 C9.67 56 9.34 56 9 56 C8.970271 54.10894531 8.970271 54.10894531 8.93994141 52.1796875 C8.86352478 47.47555508 8.7748643 42.77171751 8.68261719 38.06787109 C8.64447584 36.03700609 8.6095978 34.00607695 8.578125 31.97509766 C8.5321506 29.04566619 8.47421109 26.11667067 8.4140625 23.1875 C8.40251129 22.28821777 8.39096008 21.38893555 8.37905884 20.46240234 C8.23694171 11.28309683 8.23694171 11.28309683 4.5625 3.125 C3.06654403 2.0479117 1.53377441 1.02251627 0 0 Z"/>
<path transform="translate(526,526)" fill="#7B61D1" d="M0 0 C0.99 0.33 1.98 0.66 3 1 C2.2575 1.556875 1.515 2.11375 0.75 2.6875 C-1.91707995 4.93027178 -3.91556232 7.22074975 -6 10 C-4.55366256 13.60411654 -2.80863332 15.11402568 0.4375 17.1875 C1.21996094 17.69667969 2.00242187 18.20585938 2.80859375 18.73046875 C5.05560912 20.13071868 5.05560912 20.13071868 8 21 C8.33 21.99 8.66 22.98 9 24 C1.24513164 21.95357641 -5.44394849 18.83407727 -10 12 C-10 9 -10 9 -8.3203125 7.24609375 C-7.59585938 6.64925781 -6.87140625 6.05242188 -6.125 5.4375 C-5.04605469 4.53837891 -5.04605469 4.53837891 -3.9453125 3.62109375 C-3.30335938 3.08613281 -2.66140625 2.55117188 -2 2 C-1.34 1.34 -0.68 0.68 0 0 Z"/>
<path transform="translate(128,413)" fill="#704BE1" d="M0 0 C2.83359844 -0.05449228 5.66612485 -0.09390733 8.5 -0.125 C9.29148438 -0.14175781 10.08296875 -0.15851563 10.8984375 -0.17578125 C16.2731726 -0.21983646 20.86838029 0.34724861 26 2 C26.33 2.66 26.66 3.32 27 4 C12.15 3.505 12.15 3.505 -3 3 C-2.01 2.67 -1.02 2.34 0 2 C0 1.34 0 0.68 0 0 Z"/>
<path transform="translate(902,501)" fill="#4416D7" d="M0 0 C1.5625 1.1875 1.5625 1.1875 3 3 C2.67 4.65 2.34 6.3 2 8 C-8.89 8 -19.78 8 -31 8 C-29 6 -29 6 -26.01904297 5.77294922 C-24.77268066 5.78342285 -23.52631836 5.79389648 -22.2421875 5.8046875 C-21.24761032 5.80893234 -21.24761032 5.80893234 -20.23294067 5.81326294 C-18.11344417 5.82446565 -15.99436896 5.84956949 -13.875 5.875 C-12.43880818 5.88502972 -11.00260975 5.89415559 -9.56640625 5.90234375 C-6.04413372 5.924405 -2.52210797 5.95893506 1 6 C0.67 4.02 0.34 2.04 0 0 Z"/>
<path transform="translate(785,480)" fill="#4622CF" d="M0 0 C5.77790229 0 10.45847359 0.05676146 16 1 C16 2.65 16 4.3 16 6 C15.34 5.67 14.68 5.34 14 5 C14 4.01 14 3.02 14 2 C8.06 2.495 8.06 2.495 2 3 C1.67 15.87 1.34 28.74 1 42 C0.67 42 0.34 42 0 42 C0 28.14 0 14.28 0 0 Z"/>
<path transform="translate(632,478)" fill="#6742DD" d="M0 0 C21.7419973 -0.80360565 21.7419973 -0.80360565 29 4 C29.33 4.66 29.66 5.32 30 6 C23.25 5.125 23.25 5.125 21 4 C13.32986953 2.84948043 5.74373717 2.90086254 -2 3 C-1.34 2.67 -0.68 2.34 0 2 C0 1.34 0 0.68 0 0 Z"/>
<path transform="translate(461,544)" fill="#5C42BD" d="M0 0 C1.175625 0.28875 2.35125 0.5775 3.5625 0.875 C4.55443359 1.11863281 4.55443359 1.11863281 5.56640625 1.3671875 C7.47693444 1.86398616 9.36838933 2.43420046 11.25 3.03125 C15.37528338 4.09694821 19.20063997 4.43893478 23.4375 4.625 C24.53481445 4.68300781 24.53481445 4.68300781 25.65429688 4.7421875 C27.43583532 4.83533984 29.21788122 4.91870286 31 5 C31 5.66 31 6.32 31 7 C19.55864046 8.68374617 9.76213521 7.43413457 0 1 C0 0.67 0 0.34 0 0 Z"/>
<path transform="translate(949,481)" fill="#401AC2" d="M0 0 C5.61 0 11.22 0 17 0 C17 4.29 17 8.58 17 13 C11.72 13 6.44 13 1 13 C1.33 12.34 1.66 11.68 2 11 C6.29 11 10.58 11 15 11 C15 7.7 15 4.4 15 1 C10.05 1 5.1 1 0 1 C0 0.67 0 0.34 0 0 Z"/>
<path transform="translate(79,567)" fill="#6F49E2" d="M0 0 C-1 2 -1 2 -4.30859375 3.25390625 C-5.68248013 3.69765423 -7.05892911 4.13352642 -8.4375 4.5625 C-15.17900075 6.35673866 -15.17900075 6.35673866 -20 11 C-20.38499891 12.65549531 -20.72793135 14.3222433 -21 16 C-21.33 16 -21.66 16 -22 16 C-22.49006823 8.6489765 -22.49006823 8.6489765 -20.421875 5.91015625 C-17.43153572 3.55164672 -14.59049594 2.44645567 -11 1.1875 C-9.783125 0.74792969 -8.56625 0.30835938 -7.3125 -0.14453125 C-4.2249257 -0.94191188 -2.88960391 -1.17751359 0 0 Z"/>
<path transform="translate(829,478)" fill="#7959DB" d="M0 0 C5.75714153 1.97266761 9.56801289 6.11201836 13 11 C13.8125 13.375 13.8125 13.375 14 15 C10.85498889 13.87678175 9.94811525 12.92133603 8.0625 10.0625 C5.92769834 6.89264298 4.27030515 5.8168362 1 4 C1 3.34 1 2.68 1 2 C-5.6 2 -12.2 2 -19 2 C-13.5868673 -1.60875513 -6.30254228 -0.6017191 0 0 Z"/>
<path transform="translate(559,480)" fill="#704FDA" d="M0 0 C-3.37698788 2.04173535 -5.94546223 2.23525039 -9.859375 2.1953125 C-10.97441406 2.18886719 -12.08945312 2.18242187 -13.23828125 2.17578125 C-14.39714844 2.15902344 -15.55601562 2.14226562 -16.75 2.125 C-17.92433594 2.11597656 -19.09867188 2.10695313 -20.30859375 2.09765625 C-23.20593536 2.07410063 -26.10286441 2.04120652 -29 2 C-22.03927334 -4.96072666 -8.49656418 -2.29858741 0 0 Z"/>
<path transform="translate(335,459)" fill="#8973D6" d="M0 0 C2.86912909 0.09103685 5.70100779 0.23777556 8.5625 0.4375 C11.346875 0.623125 14.13125 0.80875 17 1 C17 7.6 17 14.2 17 21 C16.67 21 16.34 21 16 21 C15.67 15.39 15.34 9.78 15 4 C10.38 4 5.76 4 1 4 C0.67 7.3 0.34 10.6 0 14 C-0.33 14 -0.66 14 -1 14 C-1.02685938 11.85423363 -1.04633088 9.70837355 -1.0625 7.5625 C-1.07410156 6.36753906 -1.08570313 5.17257812 -1.09765625 3.94140625 C-1 1 -1 1 0 0 Z"/>
<path transform="translate(58,577)" fill="#5626E2" d="M0 0 C0.268125 0.598125 0.53625 1.19625 0.8125 1.8125 C2.03116034 4.05740063 3.03802514 5.37856038 5 7 C6.947838 7.46792966 6.947838 7.46792966 9.10424805 7.43237305 C9.92487228 7.45216721 10.74549652 7.47196136 11.59098816 7.49235535 C12.47232925 7.49874527 13.35367035 7.50513519 14.26171875 7.51171875 C15.16751175 7.52966995 16.07330475 7.54762115 17.00654602 7.56611633 C19.90014996 7.62030659 22.79358815 7.65414286 25.6875 7.6875 C27.64911165 7.72066539 29.61070141 7.75515432 31.57226562 7.79101562 C36.38139097 7.87603806 41.19046641 7.9428076 46 8 C46 8.33 46 8.66 46 9 C40.0922989 9.21718371 34.18440171 9.41401807 28.27539062 9.59204102 C26.2654408 9.65546019 24.25565817 9.72443223 22.24609375 9.79907227 C19.35703121 9.90541375 16.46795544 9.99175402 13.578125 10.07421875 C12.68007141 10.11157639 11.78201782 10.14893402 10.85675049 10.18742371 C4.68148915 10.33617125 4.68148915 10.33617125 1.41699219 8.72583008 C-0.82578865 5.99422813 -0.25588952 3.39053611 0 0 Z"/>
<path transform="translate(228,499)" fill="#714ADE" d="M0 0 C0.33 0 0.66 0 1 0 C0.82974366 8.0020478 -3.86468637 12.56721829 -9.05859375 18.25390625 C-11 20 -11 20 -13.75 20.25 C-14.4925 20.1675 -15.235 20.085 -16 20 C-15.67 18.68 -15.34 17.36 -15 16 C-15 16.66 -15 17.32 -15 18 C-9.79486054 15.01702572 -7.21235579 11.87299156 -4.1875 6.75 C-2.81382886 4.48377986 -1.42083878 2.23744718 0 0 Z"/>
<path transform="translate(255.86328125,413.3203125)" fill="#7556DA" d="M0 0 C3.77982573 1.20235773 6.57912391 3.69953352 9.13671875 6.6796875 C10.14168727 9.69459307 10.24007178 11.72150442 10.19921875 14.8671875 C10.19019531 15.76824219 10.18117188 16.66929687 10.171875 17.59765625 C10.16027344 18.28472656 10.14867187 18.97179687 10.13671875 19.6796875 C9.14671875 19.3496875 8.15671875 19.0196875 7.13671875 18.6796875 C7.08773438 17.99261719 7.03875 17.30554688 6.98828125 16.59765625 C6.87613281 15.24607422 6.87613281 15.24607422 6.76171875 13.8671875 C6.69210937 12.97386719 6.6225 12.08054687 6.55078125 11.16015625 C6.27026839 8.43570251 6.27026839 8.43570251 4.13671875 5.6796875 C2.07746736 4.95586283 2.07746736 4.95586283 0.13671875 4.6796875 C0.13671875 3.6896875 0.13671875 2.6996875 0.13671875 1.6796875 C-2.83328125 1.6796875 -5.80328125 1.6796875 -8.86328125 1.6796875 C-5.52077604 -0.54864931 -3.9077118 -0.59229643 0 0 Z"/>
<path transform="translate(172,523)" fill="#7554D8" d="M0 0 C0.33 0.66 0.66 1.32 1 2 C-2.18390786 9.79324727 -7.18281901 16.0204104 -13 22 C-13.99 21.67 -14.98 21.34 -16 21 C-14.700625 19.5459375 -14.700625 19.5459375 -13.375 18.0625 C-10.29675806 14.50282685 -7.77683256 10.71592124 -5.296875 6.72265625 C-4.86890625 6.15417969 -4.4409375 5.58570313 -4 5 C-3.34 5 -2.68 5 -2 5 C-2 3.68 -2 2.36 -2 1 C-1.34 0.67 -0.68 0.34 0 0 Z"/>
<path transform="translate(487,478)" fill="#6141D3" d="M0 0 C1.921875 1.51953125 1.921875 1.51953125 3 3 C2.154375 2.97679687 1.30875 2.95359375 0.4375 2.9296875 C-6.16577871 2.82463534 -11.66615912 3.22207975 -18 5 C-21.5 5.125 -21.5 5.125 -24 5 C-18.79388896 -1.73732017 -7.56042527 -0.88331602 0 0 Z"/>
<path transform="translate(701,509)" fill="#5E37D8" d="M0 0 C1.90318884 2.85478326 2.4619099 4.41941308 3.125 7.6875 C3.29257812 8.49574219 3.46015625 9.30398438 3.6328125 10.13671875 C3.75398437 10.75160156 3.87515625 11.36648438 4 12 C4.66 10.68 5.32 9.36 6 8 C6.66 8 7.32 8 8 8 C8.33 7.01 8.66 6.02 9 5 C8.45144652 9.571279 7.58255197 13.67435795 6 18 C4.68 18 3.36 18 2 18 C1.6603981 16.12612523 1.32861309 14.25083303 1 12.375 C0.7215625 10.80878906 0.7215625 10.80878906 0.4375 9.2109375 C0.01284203 6.09425135 -0.07545206 3.14069188 0 0 Z"/>
<path transform="translate(296,444)" fill="#7D5CDA" d="M0 0 C3.125 0.375 3.125 0.375 6 1 C3 3 3 3 1 3 C0.81824219 3.54527344 0.63648438 4.09054687 0.44921875 4.65234375 C-1.3671875 10.1015625 -3.18359375 15.55078125 -5 21 C-5.33 21 -5.66 21 -6 21 C-8.10451823 13.87701522 -5.29326562 8.40195292 -2 2 C-1.34 1.34 -0.68 0.68 0 0 Z"/>
<path transform="translate(157,453)" fill="#6B46D9" d="M0 0 C4.20641565 -0.54154453 5.67370682 -0.2426907 9.140625 2.3359375 C10.19149516 3.33400012 11.22776506 4.3476282 12.25 5.375 C12.77851563 5.88289063 13.30703125 6.39078125 13.8515625 6.9140625 C15.92752186 8.9162568 17.96064121 10.96064121 20 13 C19.625 15.125 19.625 15.125 19 17 C18.52691406 16.41992188 18.05382812 15.83984375 17.56640625 15.2421875 C13.40929679 10.33145001 9.37764366 6.55148593 3.8828125 3.19140625 C2 2 2 2 0 0 Z"/>
<path transform="translate(302,423)" fill="#8B75D3" d="M0 0 C0.66 0.66 1.32 1.32 2 2 C1.01 2.33 0.02 2.66 -1 3 C-1 2.34 -1 1.68 -1 1 C-7.43750197 1.02919502 -11.01078171 2.1219438 -15.58984375 6.72265625 C-17 8 -17 8 -19 8 C-19 10.64 -19 13.28 -19 16 C-19.33 16 -19.66 16 -20 16 C-20.34881714 11.55258152 -20.60677812 8.11647174 -18.4375 4.125 C-12.76115295 -0.82361024 -7.16123553 -1.93980514 0 0 Z"/>
<path transform="translate(101,482)" fill="#7552DF" d="M0 0 C0.66 0 1.32 0 2 0 C1.67 6.93 1.34 13.86 1 21 C0.34 21 -0.32 21 -1 21 C-3.19648703 14.41053892 -2.81864489 6.34195101 0 0 Z"/>
<path transform="translate(923,481)" fill="#3916C3" d="M0 0 C3.63 0 7.26 0 11 0 C11 0.33 11 0.66 11 1 C8.03 1 5.06 1 2 1 C2 4.3 2 7.6 2 11 C5.3 11 8.6 11 12 11 C12 11.66 12 12.32 12 13 C8.04 13 4.08 13 0 13 C0 8.71 0 4.42 0 0 Z"/>
<path transform="translate(716,485)" fill="#6749D3" d="M0 0 C0.66 0.66 1.32 1.32 2 2 C1.46132998 5.08511011 0.80932258 7.98383607 0 11 C-0.26683594 12.00289063 -0.53367187 13.00578125 -0.80859375 14.0390625 C-1.52617021 16.69649879 -2.25689864 19.34960514 -3 22 C-3.66 22 -4.32 22 -5 22 C-5.33 22.99 -5.66 23.98 -6 25 C-5.33854315 19.33580057 -4.01244028 14.03729239 -2.4375 8.5625 C-2.20353516 7.73556641 -1.96957031 6.90863281 -1.72851562 6.05664062 C-1.15636985 4.03661574 -0.57874796 2.01814324 0 0 Z"/>
<path transform="translate(197,441)" fill="#704DDE" d="M0 0 C5.44994056 4.62419199 8.76507648 10.68863625 12 17 C12 17.66 12 18.32 12 19 C11.01 19.33 10.02 19.66 9 20 C8.60167969 19.18015625 8.20335937 18.3603125 7.79296875 17.515625 C7.26316406 16.43796875 6.73335937 15.3603125 6.1875 14.25 C5.66542969 13.18265625 5.14335937 12.1153125 4.60546875 11.015625 C3.13994732 8.04388904 3.13994732 8.04388904 1.30078125 5.859375 C0 4 0 4 0 0 Z"/>
<path transform="translate(620,483)" fill="#7153D9" d="M0 0 C0.66 0.33 1.32 0.66 2 1 C1.8125 2.75 1.8125 2.75 1 5 C0.21625 5.61875 -0.5675 6.2375 -1.375 6.875 C-4.37245616 9.30151213 -5.32821491 11.5804396 -7 15 C-7.99 15.33 -8.98 15.66 -10 16 C-8.80004781 8.95028091 -4.90000527 5.02535424 0 0 Z"/>
<path transform="translate(477.6875,491.875)" fill="#7655D9" d="M0 0 C1.49080078 0.02707031 1.49080078 0.02707031 3.01171875 0.0546875 C3.77097656 0.07789063 4.53023438 0.10109375 5.3125 0.125 C5.3125 0.455 5.3125 0.785 5.3125 1.125 C4.72082031 1.24617188 4.12914062 1.36734375 3.51953125 1.4921875 C1.8881592 1.83815547 0.26054149 2.20220458 -1.36328125 2.58203125 C-3.08864013 2.98509828 -4.82365435 3.34729107 -6.5625 3.6875 C-10.1212148 6.0948659 -10.66931034 10.10190914 -11.6875 14.125 C-12.3475 14.125 -13.0075 14.125 -13.6875 14.125 C-13.27289598 8.83879876 -12.40427318 5.95109003 -8.6875 2.125 C-5.26655758 -0.15562828 -4.00562778 -0.09425007 0 0 Z"/>
<path transform="translate(137,525)" fill="#7656DA" d="M0 0 C0.66 0.33 1.32 0.66 2 1 C-2.07406026 5.41356528 -4.06466777 6.86954079 -9.98828125 7.1328125 C-15.75905779 7.11925016 -21.31944231 7.05684794 -27 6 C-27 5.67 -27 5.34 -27 5 C-26.10539062 5.03480469 -25.21078125 5.06960938 -24.2890625 5.10546875 C-15.42609075 5.30389349 -7.54158207 5.02772138 0 0 Z"/>
<path transform="translate(666,488)" fill="#7551DC" d="M0 0 C4.58985157 3.60631195 6.43284539 8.5312834 8 14 C8.28562152 16.77588411 8.20722983 19.20239734 8 22 C4.80230129 19.43471524 4.2806072 16.93128843 3.4375 13 C2.64125495 9.32917537 2.1042856 7.1564284 0 4 C0 2.68 0 1.36 0 0 Z"/>
<path transform="translate(126,460)" fill="#6B48DA" d="M0 0 C2.91672884 -0.02700675 5.83320677 -0.04684237 8.75 -0.0625 C9.9875 -0.07506836 9.9875 -0.07506836 11.25 -0.08789062 C12.04921875 -0.09111328 12.8484375 -0.09433594 13.671875 -0.09765625 C14.4050293 -0.10289307 15.13818359 -0.10812988 15.89355469 -0.11352539 C18.0461849 0.0024891 19.9314135 0.40926729 22 1 C22 1.66 22 2.32 22 3 C14.08 3 6.16 3 -2 3 C-1.34 2.67 -0.68 2.34 0 2 C0 1.34 0 0.68 0 0 Z"/>
<path transform="translate(451,499)" fill="#5F3BD9" d="M0 0 C0.93423645 3.01031744 1.04449911 3.86650268 0 7 C-0.08021999 8.40824893 -0.10765977 9.81997231 -0.09765625 11.23046875 C-0.09443359 12.03291016 -0.09121094 12.83535156 -0.08789062 13.66210938 C-0.07951172 14.49548828 -0.07113281 15.32886719 -0.0625 16.1875 C-0.05798828 17.03248047 -0.05347656 17.87746094 -0.04882812 18.74804688 C-0.03705403 20.83206155 -0.0191189 22.91603977 0 25 C-0.99 24.67 -1.98 24.34 -3 24 C-3 17.73 -3 11.46 -3 5 C-2.34 5 -1.68 5 -1 5 C-0.67 3.35 -0.34 1.7 0 0 Z"/>
<path transform="translate(187,495)" fill="#997EE5" d="M0 0 C0.33 0 0.66 0 1 0 C1.33 10.56 1.66 21.12 2 32 C1.01 32 0.02 32 -1 32 C-2.1319587 28.60412389 -1.70117695 26.46082918 -1 23 C-0.85917098 21.16252459 -0.75560602 19.32192549 -0.68359375 17.48046875 C-0.64169922 16.45888672 -0.59980469 15.43730469 -0.55664062 14.38476562 C-0.51732422 13.32966797 -0.47800781 12.27457031 -0.4375 11.1875 C-0.39431641 10.11306641 -0.35113281 9.03863281 -0.30664062 7.93164062 C-0.20089017 5.28787918 -0.09879767 2.6440289 0 0 Z"/>
<path transform="translate(549,493)" fill="#7050D6" d="M0 0 C4.64613708 -0.31678207 6.3806584 0.22517144 10 3 C12.03871245 2.8237956 12.03871245 2.8237956 14 2 C15.32 1.67 16.64 1.34 18 1 C16.02 3.31 14.04 5.62 12 8 C8 5.33333333 4 2.66666667 0 0 Z"/>
<path transform="translate(248,438)" fill="#714DD6" d="M0 0 C0.66 0 1.32 0 2 0 C1.47731534 2.76276177 0.89130413 5.3260876 0 8 C-0.14835948 9.77166975 -0.24770018 11.54767612 -0.31640625 13.32421875 C-0.35830078 14.35224609 -0.40019531 15.38027344 -0.44335938 16.43945312 C-0.48267578 17.51130859 -0.52199219 18.58316406 -0.5625 19.6875 C-0.60568359 20.77095703 -0.64886719 21.85441406 -0.69335938 22.97070312 C-0.79946838 25.64700791 -0.90152361 28.32340526 -1 31 C-2.98 31.99 -2.98 31.99 -5 33 C-4.67708984 32.44747559 -4.35417969 31.89495117 -4.02148438 31.32568359 C-2.84717997 28.65206416 -2.71643384 26.70123409 -2.65625 23.7890625 C-2.62660156 22.79132813 -2.59695312 21.79359375 -2.56640625 20.765625 C-2.54449219 19.72921875 -2.52257812 18.6928125 -2.5 17.625 C-2.23633317 5.24816898 -2.23633317 5.24816898 0 0 Z"/>
<path transform="translate(672,504)" fill="#4E27D7" d="M0 0 C0.33 0 0.66 0 1 0 C2.0176403 5.01608525 2.11856434 9.78608306 2.0625 14.875 C2.05798828 15.65875 2.05347656 16.4425 2.04882812 17.25 C2.03714093 19.16670014 2.01920908 21.08336048 2 23 C1.01 23.33 0.02 23.66 -1 24 C-0.67 16.08 -0.34 8.16 0 0 Z"/>
<path transform="translate(776,483)" fill="#8D71DE" d="M0 0 C1.38534923 2.77069845 0.61733726 4.05272075 -0.21484375 7.0078125 C-0.48876953 7.99394531 -0.76269531 8.98007812 -1.04492188 9.99609375 C-1.33947266 11.02863281 -1.63402344 12.06117188 -1.9375 13.125 C-2.22818359 14.16527344 -2.51886719 15.20554687 -2.81835938 16.27734375 C-3.53919064 18.85342927 -4.26665682 21.42745359 -5 24 C-5.33 24 -5.66 24 -6 24 C-6 21.03 -6 18.06 -6 15 C-5.34 15 -4.68 15 -4 15 C-3.94392578 13.62714844 -3.94392578 13.62714844 -3.88671875 12.2265625 C-3.82097656 11.03804688 -3.75523437 9.84953125 -3.6875 8.625 C-3.62949219 7.44164062 -3.57148437 6.25828125 -3.51171875 5.0390625 C-3.34285156 4.03617187 -3.17398438 3.03328125 -3 2 C-2.01 1.34 -1.02 0.68 0 0 Z"/>
<path transform="translate(569,519)" fill="#8F74DF" d="M0 0 C2.82898917 2.82898917 3.16826363 5.3390793 3.25 9.1875 C3.20229737 14.04521825 2.0411702 17.60363342 0 22 C-0.66 22.33 -1.32 22.66 -2 23 C-1.23943662 16.53521127 -1.23943662 16.53521127 0.0625 13.625 C1.17157481 10.51959052 1.01727206 8.44335808 0.625 5.1875 C0.51414062 4.21167969 0.40328125 3.23585938 0.2890625 2.23046875 C0.14597656 1.12638672 0.14597656 1.12638672 0 0 Z"/>
<path transform="translate(903,527)" fill="#6847D3" d="M0 0 C4.12751449 0.60698743 7.3321148 2.03810791 11 4 C11 4.33 11 4.66 11 5 C7.37 5 3.74 5 0 5 C-0.33 5.66 -0.66 6.32 -1 7 C-1.66 7 -2.32 7 -3 7 C-2.38722388 4.03824877 -1.74627478 2.61941217 0 0 Z"/>
<path transform="translate(856,502)" fill="#6345D2" d="M0 0 C0.33 0 0.66 0 1 0 C1 6.93 1 13.86 1 21 C-2 18 -2 18 -2.36328125 14.78515625 C-2.34652344 13.55667969 -2.32976563 12.32820312 -2.3125 11.0625 C-2.30863281 9.83660156 -2.30476562 8.61070312 -2.30078125 7.34765625 C-2.02532154 4.28182542 -1.61467714 2.56675768 0 0 Z"/>
<path transform="translate(283,431)" fill="#6D4AD3" d="M0 0 C0.66 0 1.32 0 2 0 C2.28875 1.03125 2.5775 2.0625 2.875 3.125 C3.82308798 6.45007997 4.88256594 9.72751453 6 13 C5.34 13 4.68 13 4 13 C3.67 13.66 3.34 14.32 3 15 C-0.77755334 10.27805833 -0.30096975 5.74071928 0 0 Z"/>
<path transform="translate(136,499)" fill="#7D5FDB" d="M0 0 C2 2 2 2 2.375 5.1875 C1.90361863 9.97987725 0.76684818 12.08029841 -2 16 C-4.25 17.4375 -4.25 17.4375 -6 18 C-5.40312566 14.65750371 -4.26396123 12.53563658 -2 10 C-1.34 10 -0.68 10 0 10 C0 6.7 0 3.4 0 0 Z"/>
<path transform="translate(307,429)" fill="#795CD4" d="M0 0 C2 2 2 2 2.4375 5.75 C2.37046889 9.08936804 1.7230522 10.90064329 -0.375 13.5 C-3 16 -3 16 -5 16 C-4.56109595 13.54213734 -4.14539053 12.16962228 -2.5 10.25 C-0.29065625 6.93598437 -0.32885089 3.94621066 0 0 Z"/>
<path transform="translate(875,546)" fill="#411CC5" d="M0 0 C0.6084375 0.0721875 1.216875 0.144375 1.84375 0.21875 C10.24449341 1.10824048 18.565624 1.09524389 27 1 C26.67 1.66 26.34 2.32 26 3 C22.60423938 3.05830787 19.2086085 3.09369946 15.8125 3.125 C14.85279297 3.14175781 13.89308594 3.15851562 12.90429688 3.17578125 C11.97294922 3.18222656 11.04160156 3.18867187 10.08203125 3.1953125 C9.22843018 3.20578613 8.3748291 3.21625977 7.49536133 3.22705078 C4.69273185 2.97204194 2.55270581 2.15541422 0 1 C0 0.67 0 0.34 0 0 Z"/>
<path transform="translate(611,498)" fill="#4B21D6" d="M0 0 C1.26054342 3.78163025 0.93993322 7.15151402 0.6875 11.0625 C0.63432617 12.16174805 0.63432617 12.16174805 0.58007812 13.28320312 C0.2433265 18.7566735 0.2433265 18.7566735 -2 21 C-2.05791844 17.87507749 -2.09356746 14.75029234 -2.125 11.625 C-2.14175781 10.73554688 -2.15851562 9.84609375 -2.17578125 8.9296875 C-2.18222656 8.07890625 -2.18867187 7.228125 -2.1953125 6.3515625 C-2.20578613 5.56604004 -2.21625977 4.78051758 -2.22705078 3.97119141 C-2 2 -2 2 0 0 Z"/>
<path transform="translate(415,491)" fill="#6B47D8" d="M0 0 C0.66 0.66 1.32 1.32 2 2 C0.78763672 2.18175781 0.78763672 2.18175781 -0.44921875 2.3671875 C-1.51785156 2.53476562 -2.58648437 2.70234375 -3.6875 2.875 C-4.74324219 3.03742188 -5.79898437 3.19984375 -6.88671875 3.3671875 C-9.79794914 3.95893069 -12.28955607 4.8031806 -15 6 C-14.8125 4.125 -14.8125 4.125 -14 2 C-9.870119 -0.58117562 -4.73808768 -0.63298617 0 0 Z"/>
<path transform="translate(503,530)" fill="#6C4DD1" d="M0 0 C2.9719385 1.12451727 5.33440687 2.22293791 8 4 C7.64950425 7.24208567 7.43778819 8.61527704 4.9375 10.8125 C4.298125 11.204375 3.65875 11.59625 3 12 C3.33 9.69 3.66 7.38 4 5 C2.35 4.01 0.7 3.02 -1 2 C-0.67 1.34 -0.34 0.68 0 0 Z"/>
<path transform="translate(520,492)" fill="#7B5DD8" d="M0 0 C2.34770643 3.52155964 2.37669614 5.50771843 2.625 9.6875 C2.69976563 10.86699219 2.77453125 12.04648437 2.8515625 13.26171875 C2.90054688 14.16535156 2.94953125 15.06898438 3 16 C2.01 15.67 1.02 15.34 0 15 C-0.93742541 12.18772378 -1.13470844 10.41253156 -1.125 7.5 C-1.12757813 6.7265625 -1.13015625 5.953125 -1.1328125 5.15625 C-1 3 -1 3 0 0 Z"/>
<path transform="translate(760,484)" fill="#6444D4" d="M0 0 C1.13732426 3.40401948 0.83989957 5.77456664 0.0625 9.25 C-0.13214844 10.14203125 -0.32679688 11.0340625 -0.52734375 11.953125 C-0.68332031 12.62859375 -0.83929687 13.3040625 -1 14 C-1.99 14 -2.98 14 -4 14 C-4.33 14.99 -4.66 15.98 -5 17 C-4.35812082 11.86496656 -3.31727753 7.0056546 -2 2 C-1.34 2 -0.68 2 0 2 C0 1.34 0 0.68 0 0 Z"/>
<path transform="translate(184,430)" fill="#5C34DA" d="M0 0 C3.91962318 1.33404719 6.42974109 2.97353676 9.375 5.875 C10.08398438 6.55304688 10.79296875 7.23109375 11.5234375 7.9296875 C13 10 13 10 12.7265625 12.2578125 C12.48679688 12.83273437 12.24703125 13.40765625 12 14 C11.38511719 13.30132812 10.77023438 12.60265625 10.13671875 11.8828125 C9.32847656 10.97273438 8.52023438 10.06265625 7.6875 9.125 C6.88699219 8.22007812 6.08648437 7.31515625 5.26171875 6.3828125 C3.04188943 3.86787689 3.04188943 3.86787689 0 2 C0 1.34 0 0.68 0 0 Z"/>
<path transform="translate(246,565)" fill="#7454D4" d="M0 0 C0.99 0.33 1.98 0.66 3 1 C-5.261959 8.66742597 -5.261959 8.66742597 -10 10 C-10 9.01 -10 8.02 -10 7 C-9.01 7 -8.02 7 -7 7 C-6.67 6.01 -6.34 5.02 -6 4 C-3.125 1.75 -3.125 1.75 0 0 Z"/>
<path transform="translate(122.75,447.875)" fill="#8162DA" d="M0 0 C0.98484375 0.01804687 1.9696875 0.03609375 2.984375 0.0546875 C4.10585937 0.08949219 4.10585937 0.08949219 5.25 0.125 C5.25 0.455 5.25 0.785 5.25 1.125 C4.03763672 1.39763672 4.03763672 1.39763672 2.80078125 1.67578125 C1.19783203 2.05283203 1.19783203 2.05283203 -0.4375 2.4375 C-2.02111328 2.80294922 -2.02111328 2.80294922 -3.63671875 3.17578125 C-6.80071876 4.00228087 -6.80071876 4.00228087 -9.51953125 5.79296875 C-10.25558594 6.23253906 -10.99164063 6.67210937 -11.75 7.125 C-12.41 6.795 -13.07 6.465 -13.75 6.125 C-9.35372365 1.41470391 -6.49168396 -0.1545639 0 0 Z"/>
<path transform="translate(555,527)" fill="#6A44DA" d="M0 0 C0.33 0 0.66 0 1 0 C1.48673947 5.35413417 1.48673947 5.35413417 -0.625 8.15625 C-3.61213575 10.47521065 -5.50495661 10.58717203 -9.25 10.75 C-10.86648438 10.83507812 -10.86648438 10.83507812 -12.515625 10.921875 C-13.33546875 10.94765625 -14.1553125 10.9734375 -15 11 C-15.33 10.01 -15.66 9.02 -16 8 C-15.32453125 8.03480469 -14.6490625 8.06960938 -13.953125 8.10546875 C-12.61507812 8.14607422 -12.61507812 8.14607422 -11.25 8.1875 C-10.36828125 8.22230469 -9.4865625 8.25710938 -8.578125 8.29296875 C-5.53436457 7.94708688 -4.32060511 6.92206641 -2 5 C-1.34 5 -0.68 5 0 5 C0 3.35 0 1.7 0 0 Z"/>
<path transform="translate(244,417)" fill="#5025D4" d="M0 0 C0.66 0.33 1.32 0.66 2 1 C1.34 1.66 0.68 2.32 0 3 C-0.28103071 5.07354839 -0.28103071 5.07354839 -0.1875 7.375 C-0.18105469 8.14585937 -0.17460937 8.91671875 -0.16796875 9.7109375 C-0.00365602 11.95017605 0.26745736 13.87702609 1 16 C2.31647119 16.69937532 3.65022151 17.36729133 5 18 C5.33 18.99 5.66 19.98 6 21 C2.09631918 19.46641111 0.0549951 17.66963411 -2 14 C-2.441463 9.96761234 -2.51159667 6.02733658 -2 2 C-1.34 1.34 -0.68 0.68 0 0 Z"/>
<path transform="translate(71,536)" fill="#7856D5" d="M0 0 C0.47050781 0.40992188 0.94101563 0.81984375 1.42578125 1.2421875 C2.04839844 1.78101563 2.67101562 2.31984375 3.3125 2.875 C4.23482422 3.67550781 4.23482422 3.67550781 5.17578125 4.4921875 C7.13498212 6.1640447 7.13498212 6.1640447 10 8 C10.6875 10.125 10.6875 10.125 11 12 C7.07279701 10.33849104 4.0720882 7.93555094 1 5 C0.125 2.1875 0.125 2.1875 0 0 Z"/>
<path transform="translate(672,527)" fill="#704ED6" d="M0 0 C1 3 1 3 0.07421875 5.4453125 C-0.38339844 6.32960938 -0.84101562 7.21390625 -1.3125 8.125 C-1.76238281 9.01445313 -2.21226562 9.90390625 -2.67578125 10.8203125 C-4 13 -4 13 -6 14 C-6.33 13.01 -6.66 12.02 -7 11 C-5.8125 8.6875 -5.8125 8.6875 -4 6 C-3.278125 4.906875 -2.55625 3.81375 -1.8125 2.6875 C-1.214375 1.800625 -0.61625 0.91375 0 0 Z"/>
<path transform="translate(505,490)" fill="#8366DD" d="M0 0 C3.9226818 3.24635735 5.96609666 7.0527242 7 12 C6.57421875 14.25 6.57421875 14.25 6 16 C6 15.01 6 14.02 6 13 C5.01 12.67 4.02 12.34 3 12 C1.63866302 8.06724871 0.74383122 4.09107168 0 0 Z"/>
<path transform="translate(644,493)" fill="#8868DC" d="M0 0 C-2.78118337 1.47276301 -5.49120127 2.52558669 -8.5 3.4375 C-11.82491156 4.5111123 -14.37910859 5.60701219 -17 8 C-16.6875 5.625 -16.6875 5.625 -16 3 C-10.9749232 -0.3500512 -5.9145821 -0.11829164 0 0 Z"/>
<path transform="translate(658,545)" fill="#4923C2" d="M0 0 C-0.33 0.99 -0.66 1.98 -1 3 C-5.58104891 5.10254829 -9.92331998 5.24975163 -14.875 5.125 C-15.56335938 5.11597656 -16.25171875 5.10695313 -16.9609375 5.09765625 C-18.64077838 5.07432513 -20.32043746 5.03846326 -22 5 C-22 4.67 -22 4.34 -22 4 C-20.87980469 3.87882813 -19.75960937 3.75765625 -18.60546875 3.6328125 C-17.13276364 3.46396733 -15.66010996 3.29467303 -14.1875 3.125 C-13.08051758 3.00705078 -13.08051758 3.00705078 -11.95117188 2.88671875 C-7.53159492 2.36676852 -4.19385042 0 0 0 Z"/>
<path transform="translate(165,474)" fill="#6E4BD9" d="M0 0 C3.6739599 3.37607126 6.05406554 6.39120786 8 11 C8 11.66 8 12.32 8 13 C7.01 13 6.02 13 5 13 C0.59225513 4.738041 0.59225513 4.738041 0 0 Z"/>
<path transform="translate(969,534)" fill="#A190D5" d="M0 0 C0 4.62 0 9.24 0 14 C-2.45943295 9.0811341 -2.15932336 6.41699411 -2 1 C-5.63 1 -9.26 1 -13 1 C-13 0.67 -13 0.34 -13 0 C-11.39679026 -0.19551338 -9.79237014 -0.38111983 -8.1875 -0.5625 C-7.29417969 -0.66691406 -6.40085937 -0.77132812 -5.48046875 -0.87890625 C-3 -1 -3 -1 0 0 Z"/>
<path transform="translate(58,514)" fill="#7859D6" d="M0 0 C0.33 0.66 0.66 1.32 1 2 C1.66 2 2.32 2 3 2 C7.59225513 11.41002278 7.59225513 11.41002278 7 16 C3.26170422 11.70095985 0 5.75071925 0 0 Z"/>
<path transform="translate(64,570)" fill="#7A5BD8" d="M0 0 C0.66 0.33 1.32 0.66 2 1 C0.36587557 2.70840281 -0.86906094 3.93453047 -3 5 C-4.9451 7.91765 -5.45276317 9.62537285 -6 13 C-6.33 13 -6.66 13 -7 13 C-7.48945148 5.65822785 -7.48945148 5.65822785 -5.1875 2.5625 C-3 1 -3 1 0 0 Z"/>
<path transform="translate(911,540)" fill="#7559CE" d="M0 0 C0.66 0 1.32 0 2 0 C1.62830496 2.63002402 1.2921315 3.74520369 -0.7421875 5.51953125 C-1.44601562 5.94621094 -2.14984375 6.37289062 -2.875 6.8125 C-3.92300781 7.47185547 -3.92300781 7.47185547 -4.9921875 8.14453125 C-7 9 -7 9 -10 8 C-7.44735608 5.02191543 -4.46818428 3.73409214 -1 2 C-0.67 1.34 -0.34 0.68 0 0 Z"/>
<path transform="translate(149,503)" fill="#8A6CE1" d="M0 0 C0.33 0 0.66 0 1 0 C1.08114106 1.77007714 1.13925505 3.54122098 1.1875 5.3125 C1.22230469 6.29863281 1.25710937 7.28476562 1.29296875 8.30078125 C0.95276351 11.4352055 0.316713 12.01007775 -2 14 C-2.33 14.99 -2.66 15.98 -3 17 C-3.66 17 -4.32 17 -5 17 C-4.70351562 16.30519531 -4.40703125 15.61039063 -4.1015625 14.89453125 C-2.94421163 11.85340716 -2.13934996 8.84912937 -1.375 5.6875 C-1.11460937 4.61886719 -0.85421875 3.55023438 -0.5859375 2.44921875 C-0.39257812 1.64097656 -0.19921875 0.83273437 0 0 Z"/>
<path transform="translate(423,478)" fill="#7455D8" d="M0 0 C5.67023649 1.35005631 8.17957309 3.8157229 12 8 C11.67 8.66 11.34 9.32 11 10 C6.23925541 7.52807492 3.07079661 5.54477899 0 1 C0 0.67 0 0.34 0 0 Z"/>
<path transform="translate(417.0625,476.75)" fill="#4F2BD2" d="M0 0 C0.87785156 -0.02578125 1.75570313 -0.0515625 2.66015625 -0.078125 C3.41167969 0.03015625 4.16320312 0.1384375 4.9375 0.25 C5.5975 1.24 6.2575 2.23 6.9375 3.25 C1.3275 3.25 -4.2825 3.25 -10.0625 3.25 C-6.98620006 0.17370006 -4.17182831 0.07372892 0 0 Z"/>
<path transform="translate(461,544)" fill="#7A64C8" d="M0 0 C7.625 1.875 7.625 1.875 11 3 C11 3.66 11 4.32 11 5 C13.97 5.495 13.97 5.495 17 6 C13.40144968 7.30249153 11.41900527 6.69931441 7.9375 5.25 C7.08027344 4.90453125 6.22304688 4.5590625 5.33984375 4.203125 C3.07264009 3.03735083 1.66827457 1.90347394 0 0 Z"/>
<path transform="translate(263,436)" fill="#8D70E0" d="M0 0 C0 0.99 0 1.98 0 3 C-0.33 3.33 -0.66 3.66 -1 4 C-1.07313567 6.53049402 -1.09247527 9.03304837 -1.0625 11.5625 C-1.05798828 12.27341797 -1.05347656 12.98433594 -1.04882812 13.71679688 C-1.03700864 15.47790013 -1.01907263 17.23896036 -1 19 C-1.99 18.34 -2.98 17.68 -4 17 C-3.91297874 14.72844502 -3.80480478 12.45769257 -3.6875 10.1875 C-3.62949219 8.92292969 -3.57148438 7.65835937 -3.51171875 6.35546875 C-3 3 -3 3 -1.45703125 1.05078125 C-0.97621094 0.70402344 -0.49539063 0.35726563 0 0 Z"/>
<path transform="translate(182,532)" fill="#896AE6" d="M0 0 C1.05095823 3.27524652 0.98295862 4.05396438 -0.125 7.5625 C-2.08724364 11.15994668 -3.34216283 12.31937211 -7 14 C-5.23570801 9.02790438 -2.6060834 4.56561939 0 0 Z"/>
<path transform="translate(753,510)" fill="#502CD0" d="M0 0 C1.3805087 3.76668598 0.59568159 6.44789173 -0.4375 10.25 C-0.72496094 11.32765625 -1.01242187 12.4053125 -1.30859375 13.515625 C-1.53675781 14.33546875 -1.76492188 15.1553125 -2 16 C-2.33 16 -2.66 16 -3 16 C-3.0272415 14.58344207 -3.04650467 13.16672955 -3.0625 11.75 C-3.07410156 10.96109375 -3.08570313 10.1721875 -3.09765625 9.359375 C-3.00385306 7.09308998 -2.63241063 5.1711105 -2 3 C-1.34 3 -0.68 3 0 3 C0 2.01 0 1.02 0 0 Z"/>
<path transform="translate(461,483)" fill="#6E49DF" d="M0 0 C0.66 0.33 1.32 0.66 2 1 C0.44499019 4.81684226 -2.03595495 7.19195732 -5 10 C-5.66 9.67 -6.32 9.34 -7 9 C-5.44499019 5.18315774 -2.96404505 2.80804268 0 0 Z"/>
<path transform="translate(90,474)" fill="#7E60DD" d="M0 0 C0.66 0.33 1.32 0.66 2 1 C1.01 6.28 0.02 11.56 -1 17 C-1.33 17 -1.66 17 -2 17 C-3.11477625 10.32477353 -3.26584133 6.00914805 0 0 Z"/>
<path transform="translate(97,423)" fill="#7A56E3" d="M0 0 C0.66 0.33 1.32 0.66 2 1 C-0.57784846 3.64752004 -2.91648098 5.94432065 -6 8 C-7.32 7.67 -8.64 7.34 -10 7 C-6.7 4.69 -3.4 2.38 0 0 Z"/>
<path transform="translate(212,501)" fill="#552AD9" d="M0 0 C0.33 0 0.66 0 1 0 C1.18451025 11.52164009 1.18451025 11.52164009 0 17 C-2 15 -2 15 -2.01171875 12.5390625 C-1.90472656 11.57742188 -1.79773438 10.61578125 -1.6875 9.625 C-1.58824219 8.66851562 -1.48898438 7.71203125 -1.38671875 6.7265625 C-1.05934408 4.41840573 -0.62199296 2.2434276 0 0 Z"/>
<path transform="translate(477,480)" fill="#6A44E0" d="M0 0 C0 0.33 0 0.66 0 1 C-4.84241633 2.33583899 -8.93437617 3.25328119 -14 3 C-9.60116392 -1.81777285 -5.99215012 -0.88408772 0 0 Z"/>
<path transform="translate(878,478)" fill="#8065D9" d="M0 0 C2.89608593 -0.05413245 5.79115195 -0.09373641 8.6875 -0.125 C9.91243164 -0.15013672 9.91243164 -0.15013672 11.16210938 -0.17578125 C15.57092929 -0.2114802 18.98731576 -0.07580814 23 2 C21.125 3.0625 21.125 3.0625 19 4 C18.34 3.67 17.68 3.34 17 3 C17 2.34 17 1.68 17 1 C11.39 1 5.78 1 0 1 C0 0.67 0 0.34 0 0 Z"/>
<path transform="translate(142,489)" fill="#8A6DDD" d="M0 0 C0.99 0 1.98 0 3 0 C3.66 0.99 4.32 1.98 5 3 C5.66 3.66 6.32 4.32 7 5 C7.1953125 7.1640625 7.1953125 7.1640625 7.125 9.625 C7.10695312 10.44226563 7.08890625 11.25953125 7.0703125 12.1015625 C7.03550781 13.04128906 7.03550781 13.04128906 7 14 C4.66666667 9.33333333 2.33333333 4.66666667 0 0 Z"/>
<path transform="translate(182,480)" fill="#8565DF" d="M0 0 C0.99 0 1.98 0 3 0 C4.7479503 5.24385089 5.19392201 9.47322267 5 15 C3.26830404 11.8377726 2.2871024 8.73257278 1.375 5.25 C1.11460937 4.26515625 0.85421875 3.2803125 0.5859375 2.265625 C0.39257812 1.51796875 0.19921875 0.7703125 0 0 Z"/>
<path transform="translate(98,462)" fill="#6D4AD8" d="M0 0 C1 3 1 3 -0.1796875 5.48046875 C-1.01886719 6.82044922 -1.01886719 6.82044922 -1.875 8.1875 C-2.42929688 9.08855469 -2.98359375 9.98960937 -3.5546875 10.91796875 C-4.03164062 11.60503906 -4.50859375 12.29210937 -5 13 C-5.33 13 -5.66 13 -6 13 C-5.63118644 6.85310727 -4.09949571 4.30972626 0 0 Z"/>
<path transform="translate(58,577)" fill="#5C3CC8" d="M0 0 C0.268125 0.598125 0.53625 1.19625 0.8125 1.8125 C2.71162349 5.31088537 4.20036361 6.73345454 8 8 C8 8.66 8 9.32 8 10 C2.25 9.25 2.25 9.25 0 7 C-0.125 3.375 -0.125 3.375 0 0 Z"/>
<path transform="translate(91,565)" fill="#8E72DE" d="M0 0 C2.02024799 0.6025301 4.03233469 1.24320565 6 2 C4.02 2.99 4.02 2.99 2 4 C2 3.34 2 2.68 2 2 C1.38125 2.185625 0.7625 2.37125 0.125 2.5625 C-2 3 -2 3 -4 2 C-4 1.34 -4 0.68 -4 0 C-6.64 0.33 -9.28 0.66 -12 1 C-7.7988135 -1.800791 -4.80639289 -0.89098099 0 0 Z"/>
<path transform="translate(869,517)" fill="#5B31D9" d="M0 0 C0.66 0 1.32 0 2 0 C2.433125 1.3921875 2.433125 1.3921875 2.875 2.8125 C3.8875 6.09791667 3.8875 6.09791667 6 9 C5.625 11.1875 5.625 11.1875 5 13 C0 4.81818182 0 4.81818182 0 0 Z"/>
<path transform="translate(902,481)" fill="#8467DD" d="M0 0 C7.57142857 4.14285714 7.57142857 4.14285714 10 7 C9.67 7.66 9.34 8.32 9 9 C2.45454545 5.18181818 2.45454545 5.18181818 0 3 C0 2.01 0 1.02 0 0 Z"/>
<path transform="translate(611,531)" fill="#6A4AD2" d="M0 0 C3.32368224 1.10789408 3.61563093 1.48436217 5.25 4.375 C5.60578125 4.98085938 5.9615625 5.58671875 6.328125 6.2109375 C7 8 7 8 6 11 C2.90407165 7.4912812 1.25805377 4.50802601 0 0 Z"/>
<path transform="translate(644,494)" fill="#7D5ED9" d="M0 0 C6.75 -0.125 6.75 -0.125 9 1 C9 1.66 9 2.32 9 3 C9.66 3 10.32 3 11 3 C10.67 4.32 10.34 5.64 10 7 C9.0925 6.21625 8.185 5.4325 7.25 4.625 C4.94809764 2.69947504 2.78422793 1.17794259 0 0 Z"/>
<path transform="translate(132,484)" fill="#582DD9" d="M0 0 C5.29441695 -0.50423019 7.81413519 0.81076967 12 4 C10.68 4.33 9.36 4.66 8 5 C7.67 4.01 7.34 3.02 7 2 C4.36 2 1.72 2 -1 2 C-0.67 1.34 -0.34 0.68 0 0 Z"/>
<path transform="translate(451,530)" fill="#7551DC" d="M0 0 C0.99 0 1.98 0 3 0 C6.125 6.625 6.125 6.625 5 10 C4.16121545 8.71186658 3.32913217 7.41936744 2.5 6.125 C2.0359375 5.40570312 1.571875 4.68640625 1.09375 3.9453125 C0 2 0 2 0 0 Z"/>
<path transform="translate(765,515)" fill="#4E1FDB" d="M0 0 C0.33 0 0.66 0 1 0 C0.91245449 1.75091019 0.80426627 3.50079551 0.6875 5.25 C0.62949219 6.22453125 0.57148437 7.1990625 0.51171875 8.203125 C-0.04636524 11.25341611 -0.96369776 12.70711276 -3 15 C-2.5547115 9.72684667 -1.91626837 4.98229776 0 0 Z"/>
<path transform="translate(541.3828125,502.77734375)" fill="#6D4BD9" d="M0 0 C0.90492188 0.38285156 1.80984375 0.76570313 2.7421875 1.16015625 C4.10730469 1.73056641 4.10730469 1.73056641 5.5 2.3125 C6.19867187 2.61285156 6.89734375 2.91320312 7.6171875 3.22265625 C5.84765625 4.30078125 5.84765625 4.30078125 3.6171875 5.22265625 C-3.00526148 2.97775829 -3.00526148 2.97775829 -4.3828125 0.22265625 C-2.3828125 -0.77734375 -2.3828125 -0.77734375 0 0 Z"/>
<path transform="translate(467,496)" fill="#6D47DA" d="M0 0 C0.66 0 1.32 0 2 0 C1.21302675 3.41021743 0.12880057 6.68885166 -1 10 C-1.66 10 -2.32 10 -3 10 C-2.25 3.375 -2.25 3.375 0 0 Z"/>
<path transform="translate(907,487)" fill="#6843D9" d="M0 0 C3.76488042 1.72154788 6.15063897 3.99234114 9 7 C8.67 7.66 8.34 8.32 8 9 C4.46766245 7.82255415 4.13691925 7.04394359 2.3125 3.9375 C1.87550781 3.20402344 1.43851563 2.47054688 0.98828125 1.71484375 C0.49908203 0.86599609 0.49908203 0.86599609 0 0 Z"/>
<path transform="translate(867,483)" fill="#714BE3" d="M0 0 C0.66 0.33 1.32 0.66 2 1 C1.34 1.66 0.68 2.32 0 3 C0 3.99 0 4.98 0 6 C-0.99 6.66 -1.98 7.32 -3 8 C-3 7.34 -3 6.68 -3 6 C-3.66 5.67 -4.32 5.34 -5 5 C-3.35 3.35 -1.7 1.7 0 0 Z M2 2 C4 3 4 3 4 3 Z"/>
<path transform="translate(285,446)" fill="#896AD9" d="M0 0 C0.33 0 0.66 0 1 0 C0.75 3.375 0.75 3.375 0 7 C-2.0625 8.4375 -2.0625 8.4375 -4 9 C-3.47181039 5.19703482 -2.56226812 2.88255163 0 0 Z"/>
<path transform="translate(78,438)" fill="#7B54E7" d="M0 0 C0.99 0.33 1.98 0.66 3 1 C1.6875 3.5 1.6875 3.5 0 6 C-0.99 6 -1.98 6 -3 6 C-3.99 6.495 -3.99 6.495 -5 7 C-3.70700306 4.11562221 -2.34058637 2.12780579 0 0 Z"/>
<path transform="translate(281,517)" fill="#7756D8" d="M0 0 C0.99 0.33 1.98 0.66 3 1 C2.02471263 2.33617352 1.04466681 3.6688751 0.0625 5 C-0.48277344 5.7425 -1.02804687 6.485 -1.58984375 7.25 C-2.28787109 8.11625 -2.28787109 8.11625 -3 9 C-3.33 9 -3.66 9 -4 9 C-4 7.35 -4 5.7 -4 4 C-3.34 4 -2.68 4 -2 4 C-1.34 2.68 -0.68 1.36 0 0 Z"/>
<path transform="translate(546.9296875,489.63671875)" fill="#491CD2" d="M0 0 C2.0703125 0.36328125 2.0703125 0.36328125 6.0703125 3.36328125 C-0.8596875 2.86828125 -0.8596875 2.86828125 -7.9296875 2.36328125 C-5.35519169 -0.21121456 -3.51631603 0.08690515 0 0 Z"/>
<path transform="translate(254,556)" fill="#5D38CE" d="M0 0 C0.33 1.32 0.66 2.64 1 4 C-1.4375 6.75 -1.4375 6.75 -4 9 C-4.99 8.67 -5.98 8.34 -7 8 C-4.69 5.36 -2.38 2.72 0 0 Z"/>
<path transform="translate(144.4375,552.875)" fill="#7C5BD5" d="M0 0 C0.515625 0.37125 1.03125 0.7425 1.5625 1.125 C0.29642393 1.65729326 -0.97560412 2.17544544 -2.25 2.6875 C-2.95769531 2.97753906 -3.66539062 3.26757812 -4.39453125 3.56640625 C-6.4375 4.125 -6.4375 4.125 -9.4375 3.125 C-9.4375 2.465 -9.4375 1.805 -9.4375 1.125 C-3.0375 -1.09038462 -3.0375 -1.09038462 0 0 Z"/>
<path transform="translate(690,528)" fill="#7359D3" d="M0 0 C0.66 0 1.32 0 2 0 C2.48828125 2.01822917 2.9765625 4.03645833 3.46484375 6.0546875 C3.94846992 8.0585657 3.94846992 8.0585657 5 10 C4.01 11.485 4.01 11.485 3 13 C2.49487756 11.39743892 1.99608373 9.79288208 1.5 8.1875 C1.2215625 7.29417969 0.943125 6.40085937 0.65625 5.48046875 C0 3 0 3 0 0 Z"/>
<path transform="translate(625,519)" fill="#7F60E0" d="M0 0 C0.33 0 0.66 0 1 0 C1.20496094 0.62648438 1.40992188 1.25296875 1.62109375 1.8984375 C1.89050781 2.71570313 2.15992188 3.53296875 2.4375 4.375 C2.70433594 5.18710937 2.97117187 5.99921875 3.24609375 6.8359375 C3.95179729 9.01031799 3.95179729 9.01031799 5 11 C3.125 10.8125 3.125 10.8125 1 10 C-0.68644932 7.10894403 -1.06919665 5.51897488 -0.625 2.1875 C-0.41875 1.465625 -0.2125 0.74375 0 0 Z"/>
<path transform="translate(559,512)" fill="#6C48DB" d="M0 0 C7.57142857 1.85714286 7.57142857 1.85714286 10 5 C9.67 5.66 9.34 6.32 9 7 C5.46627288 5.03681826 2.75520215 2.95929119 0 0 Z"/>
<path transform="translate(228,499)" fill="#7F5DDF" d="M0 0 C0.33 0 0.66 0 1 0 C0.38909774 6.47556391 0.38909774 6.47556391 -1.4375 8.9375 C-3 10 -3 10 -5 10 C-3.66654496 6.40992874 -2.1056769 3.20429093 0 0 Z"/>
<path transform="translate(114,465)" fill="#754CE6" d="M0 0 C0.66 0.33 1.32 0.66 2 1 C1.34 1.66 0.68 2.32 0 3 C0 3.99 0 4.98 0 6 C-1.98 6.99 -1.98 6.99 -4 8 C-4.33 7.01 -4.66 6.02 -5 5 C-3.35 3.35 -1.7 1.7 0 0 Z"/>
<path transform="translate(72,445)" fill="#7B58E3" d="M0 0 C0.75 1.6875 0.75 1.6875 1 4 C-0.8125 6.75 -0.8125 6.75 -3 9 C-3.66 9 -4.32 9 -5 9 C-3.7508258 5.54074837 -2.32472205 2.85306797 0 0 Z"/>
<path transform="translate(128,414)" fill="#8A6EE3" d="M0 0 C-0.33 0.99 -0.66 1.98 -1 3 C-5.29 3 -9.58 3 -14 3 C-9.25294723 -0.16470185 -5.68228705 -0.10927475 0 0 Z"/>
<path transform="translate(505,544)" fill="#7056C9" d="M0 0 C-2.31 1.65 -4.62 3.3 -7 5 C-7.66 4.67 -8.32 4.34 -9 4 C-6.35287314 0.09233654 -4.86783735 -1.62261245 0 0 Z"/>
<path transform="translate(744,510)" fill="#7855DF" d="M0 0 C2.45823172 3.68734758 3.01242616 6.69699971 4 11 C2.68 10.34 1.36 9.68 0 9 C0 6.03 0 3.06 0 0 Z"/>
<path transform="translate(651,479)" fill="#795ADC" d="M0 0 C4.3890815 0.51035831 7.33708062 1.52214277 11 4 C8.21176345 5.0326802 7.1322726 5.04509293 4.25 4.0625 C3.5075 3.711875 2.765 3.36125 2 3 C2 2.34 2 1.68 2 1 C1.34 0.67 0.68 0.34 0 0 Z"/>
<path transform="translate(179,470)" fill="#7F5EDF" d="M0 0 C1.89213369 2.38573379 3.02391783 4.07175348 4 7 C3.01 8.485 3.01 8.485 2 10 C0.68 7.03 -0.64 4.06 -2 1 C-1.34 0.67 -0.68 0.34 0 0 Z"/>
<path transform="translate(153,463)" fill="#734FDF" d="M0 0 C1.8125 1.5625 1.8125 1.5625 3 3 C-4.75 2.25 -4.75 2.25 -7 0 C-4.26634878 -1.36682561 -2.89333621 -0.84683011 0 0 Z"/>
<path transform="translate(230,576)" fill="#8B71D5" d="M0 0 C1.32 0.33 2.64 0.66 4 1 C-1.17578125 4.22265625 -1.17578125 4.22265625 -3 5 C-3.99 4.67 -4.98 4.34 -6 4 C-6 3.34 -6 2.68 -6 2 C-4.02 2 -2.04 2 0 2 C0 1.34 0 0.68 0 0 Z"/>
<path transform="translate(456,537)" fill="#5631CF" d="M0 0 C2 0 2 0 4.5 2.3125 C7 5 7 5 9 8 C5.26177603 7.08621192 3.43959834 6.6007844 1.125 3.4375 C0 1 0 1 0 0 Z"/>
<path transform="translate(495,529)" fill="#805FE2" d="M0 0 C0 3 0 3 -1 6 C-3.64 6 -6.28 6 -9 6 C-6 4 -3 2 0 0 Z"/>
<path transform="translate(811,494)" fill="#9D83E0" d="M0 0 C4.62 0 9.24 0 14 0 C14.33 1.32 14.66 2.64 15 4 C14.45859375 3.68289063 13.9171875 3.36578125 13.359375 3.0390625 C10.5842851 1.81692026 8.26791902 1.59056564 5.25 1.375 C3.77273438 1.26285156 3.77273438 1.26285156 2.265625 1.1484375 C1.51796875 1.09945313 0.7703125 1.05046875 0 1 C0 0.67 0 0.34 0 0 Z"/>
<path transform="translate(561.4375,481.75)" fill="#7252DB" d="M0 0 C2.45063118 1.19542984 3.72473173 2.29971531 5.5625 4.25 C4.08132199 3.96872579 2.60256751 3.67466268 1.125 3.375 C0.30128906 3.21257812 -0.52242187 3.05015625 -1.37109375 2.8828125 C-2.05300781 2.67398437 -2.73492188 2.46515625 -3.4375 2.25 C-3.7675 1.59 -4.0975 0.93 -4.4375 0.25 C-2.4375 -0.75 -2.4375 -0.75 0 0 Z"/>
<path transform="translate(217,581)" fill="#977ED9" d="M0 0 C2.31 0 4.62 0 7 0 C4.48300155 2.51699845 2.42445854 3.10964078 -1 4 C-3.375 3.625 -3.375 3.625 -5 3 C-3.35 2.67 -1.7 2.34 0 2 C0 1.34 0 0.68 0 0 Z"/>
<path transform="translate(466,522)" fill="#7C5BDD" d="M0 0 C1.94268841 2.91403262 3.46395304 5.85808576 5 9 C4.01 9.33 3.02 9.66 2 10 C-0.09350689 6.5980513 -0.17942163 3.94727588 0 0 Z"/>
<path transform="translate(108,471)" fill="#5F2FE7" d="M0 0 C0.99 0.33 1.98 0.66 3 1 C2 3 1 5 0 7 C-0.66 7 -1.32 7 -2 7 C-1.125 1.125 -1.125 1.125 0 0 Z"/>
<path transform="translate(147,449)" fill="#8469D9" d="M0 0 C6.625 -0.125 6.625 -0.125 10 1 C10 1.99 10 2.98 10 4 C6.7 3.01 3.4 2.02 0 1 C0 0.67 0 0.34 0 0 Z"/>
<path transform="translate(664,542)" fill="#7A5CCD" d="M0 0 C-1.0975223 2.99324263 -1.67682892 3.84610901 -4.625 5.25 C-5.40875 5.4975 -6.1925 5.745 -7 6 C-3.61538462 0 -3.61538462 0 0 0 Z"/>
<path transform="translate(545,522)" fill="#7A5AD6" d="M0 0 C5.625 -0.25 5.625 -0.25 9 2 C8.67 3.32 8.34 4.64 8 6 C7.608125 5.54625 7.21625 5.0925 6.8125 4.625 C4.69167513 2.72357081 2.66957765 1.93795972 0 1 C0 0.67 0 0.34 0 0 Z"/>
<path transform="translate(728,508)" fill="#7254D5" d="M0 0 C0.99 0.33 1.98 0.66 3 1 C3.625 3.8125 3.625 3.8125 4 7 C3.01 8.485 3.01 8.485 2 10 C1.34 6.7 0.68 3.4 0 0 Z"/>
<path transform="translate(861,489)" fill="#7050D8" d="M0 0 C0.88492145 2.47778006 1.11637742 3.66056586 0.25 6.1875 C-1 8 -1 8 -4 9 C-2.94124926 5.59687262 -1.99097846 2.98646769 0 0 Z"/>
<path transform="translate(658,483)" fill="#532CD2" d="M0 0 C5.75 1.75 5.75 1.75 8 4 C7.67 4.99 7.34 5.98 7 7 C5.83040013 6.02433888 4.66438823 5.044375 3.5 4.0625 C2.8503125 3.51722656 2.200625 2.97195313 1.53125 2.41015625 C1.0259375 1.94480469 0.520625 1.47945313 0 1 C0 0.67 0 0.34 0 0 Z"/>
<path transform="translate(106,473)" fill="#7D5BE0" d="M0 0 C1 2 1 2 0.44140625 3.9453125 C0.15136719 4.66460937 -0.13867188 5.38390625 -0.4375 6.125 C-0.72496094 6.84945313 -1.01242188 7.57390625 -1.30859375 8.3203125 C-1.53675781 8.87460937 -1.76492187 9.42890625 -2 10 C-2.66 9.67 -3.32 9.34 -4 9 C-2.94124926 5.59687262 -1.99097846 2.98646769 0 0 Z"/>
<path transform="translate(736,536)" fill="#7A5BD7" d="M0 0 C0.99 0.33 1.98 0.66 3 1 C4.16552619 5.19589427 4.08954032 5.82091936 2 10 C1.34 6.7 0.68 3.4 0 0 Z"/>
<path transform="translate(474,533)" fill="#7555D9" d="M0 0 C5.94 0.99 5.94 0.99 12 2 C12 2.33 12 2.66 12 3 C8.04 3 4.08 3 0 3 C0 2.01 0 1.02 0 0 Z"/>
<path transform="translate(521,507)" fill="#7150D5" d="M0 0 C0.99 0 1.98 0 3 0 C5 3 5 3 4.625 5.1875 C4.41875 5.785625 4.2125 6.38375 4 7 C0 2.25 0 2.25 0 0 Z"/>
<path transform="translate(567,486)" fill="#8469D9" d="M0 0 C1.32 1.32 2.64 2.64 4 4 C3.67 4.99 3.34 5.98 3 7 C2.01 7.33 1.02 7.66 0 8 C-0.33 7.34 -0.66 6.68 -1 6 C-0.34 5.67 0.32 5.34 1 5 C0.67 3.35 0.34 1.7 0 0 Z"/>
<path transform="translate(620,483)" fill="#6F4AE3" d="M0 0 C0.66 0.33 1.32 0.66 2 1 C1.6875 2.875 1.6875 2.875 1 5 C0.01 5.66 -0.98 6.32 -2 7 C-2.125 4.625 -2.125 4.625 -2 2 C-1.34 1.34 -0.68 0.68 0 0 Z"/>
<path transform="translate(157,453)" fill="#7A5BD7" d="M0 0 C2.875 -0.125 2.875 -0.125 6 0 C6.66 0.66 7.32 1.32 8 2 C7.67 2.99 7.34 3.98 7 5 C3.535 3.02 3.535 3.02 0 1 C0 0.67 0 0.34 0 0 Z"/>
<path transform="translate(184,430)" fill="#653DDD" d="M0 0 C3.91402949 1.26941497 5.79072873 2.51167694 8 6 C4.65750371 5.40312566 2.53563658 4.26396123 0 2 C0 1.34 0 0.68 0 0 Z"/>
<path transform="translate(559,546)" fill="#6F51D0" d="M0 0 C0.33 0.99 0.66 1.98 1 3 C-1.95664519 4.4783226 -4.74229737 4.06032783 -8 4 C-2.7826087 0 -2.7826087 0 0 0 Z"/>
<path transform="translate(566,542)" fill="#6F4ED2" d="M0 0 C-1.04874998 2.62187494 -1.64931313 3.79371361 -4.125 5.25 C-4.74375 5.4975 -5.3625 5.745 -6 6 C-5.6875 4.125 -5.6875 4.125 -5 2 C-2 0 -2 0 0 0 Z"/>
<path transform="translate(527,545)" fill="#6249C1" d="M0 0 C3.4375 0.8125 3.4375 0.8125 7 2 C7.33 2.99 7.66 3.98 8 5 C4.5625 4.1875 4.5625 4.1875 1 3 C0.67 2.01 0.34 1.02 0 0 Z"/>
<path transform="translate(274,526)" fill="#7352D6" d="M0 0 C0.66 0 1.32 0 2 0 C1.40072174 3.35595828 0.15377564 5.37801226 -2 8 C-1.125 1.125 -1.125 1.125 0 0 Z"/>
<path transform="translate(701,509)" fill="#8D6FE1" d="M0 0 C2.56616632 3.84924948 2.55097676 6.4349304 3 11 C2.67 10.34 2.34 9.68 2 9 C1.34 9 0.68 9 0 9 C0 6.03 0 3.06 0 0 Z"/>
<path transform="translate(508,498)" fill="#6F4DDA" d="M0 0 C0.99 0.33 1.98 0.66 3 1 C3.33 3.31 3.66 5.62 4 8 C3.67 7.01 3.34 6.02 3 5 C2.01 4.67 1.02 4.34 0 4 C0 2.68 0 1.36 0 0 Z"/>
<path transform="translate(537,492)" fill="#8E71DE" d="M0 0 C3.63 0 7.26 0 11 0 C11 0.33 11 0.66 11 1 C8.02148438 1.29296875 8.02148438 1.29296875 5.04296875 1.5859375 C2.70011858 1.92665391 2.70011858 1.92665391 0 4 C0 2.68 0 1.36 0 0 Z"/>
<path transform="translate(772,488)" fill="#5120E2" d="M0 0 C0.33 0 0.66 0 1 0 C1.125 6.625 1.125 6.625 0 10 C-0.66 10 -1.32 10 -2 10 C-2 8.35 -2 6.7 -2 5 C-1.34 5 -0.68 5 0 5 C0 3.35 0 1.7 0 0 Z"/>
<path transform="translate(130,485)" fill="#997FE2" d="M0 0 C1.52519276 0.08937803 3.04681929 0.24537146 4.5625 0.4375 C5.80193359 0.59025391 5.80193359 0.59025391 7.06640625 0.74609375 C7.70449219 0.82988281 8.34257812 0.91367187 9 1 C9 1.33 9 1.66 9 2 C7.72125 2.0825 6.4425 2.165 5.125 2.25 C2.94666582 2.45869931 2.94666582 2.45869931 1 3 C-0.5899433 4.92064793 -0.5899433 4.92064793 -1 7 C-1.04254356 5.00045254 -1.04080783 2.99958364 -1 1 C-0.67 0.67 -0.34 0.34 0 0 Z"/>
<path transform="translate(241,430)" fill="#B3A3D5" d="M0 0 C2.64752004 2.57784846 4.94432065 4.91648098 7 8 C5.1875 7.8125 5.1875 7.8125 3 7 C0 2.82142857 0 2.82142857 0 0 Z"/>
</svg>