<?xml version="1.0" encoding="UTF-8"?>
<svg version="1.1" xmlns="http://www.w3.org/2000/svg" width="1024" height="1024">
<path d="M0 0 C5.28 0 10.56 0 16 0 C18.37465285 6.13949981 20.41636166 12.33560465 22.35546875 18.625 C22.66196854 19.61250244 22.96846832 20.60000488 23.28425598 21.61743164 C24.25421106 24.7442754 25.22090533 27.87211602 26.1875 31 C26.8480914 33.13157734 27.50889652 35.26308845 28.16992188 37.39453125 C29.78242073 42.59559077 31.39224994 47.7974707 33 53 C33.22281143 52.30315598 33.44562286 51.60631195 33.67518616 50.88835144 C39.10075442 33.92038797 44.54498903 16.95851791 50 0 C55.61 0 61.22 0 67 0 C72.7880375 17.96341885 78.43398602 35.96681436 84 54 C85.79660816 48.05928714 87.59307098 42.11853035 89.3894043 36.17773438 C89.99939124 34.16046995 90.60941659 32.14321713 91.21948242 30.12597656 C92.10085195 27.21161975 92.98207932 24.29721999 93.86328125 21.3828125 C94.13215652 20.49385284 94.4010318 19.60489319 94.67805481 18.68899536 C94.93809799 17.82885834 95.19814117 16.96872131 95.46606445 16.08251953 C95.71852936 15.2498053 95.97099426 14.41709106 96.23110962 13.55914307 C96.77065983 11.76332636 97.30199679 9.96503126 97.82723999 8.16497803 C98.09332062 7.25701477 98.35940125 6.34905151 98.63354492 5.41357422 C98.87207687 4.59073944 99.11060883 3.76790466 99.35636902 2.9201355 C100 1 100 1 101 0 C103.69654854 -0.07319621 106.36691458 -0.09242537 109.0625 -0.0625 C109.82111328 -0.05798828 110.57972656 -0.05347656 111.36132812 -0.04882812 C113.24091871 -0.0370068 115.12046899 -0.01907078 117 0 C109.03849179 25.46791126 100.78888017 50.80521019 92 76 C86.72 76 81.44 76 76 76 C73.69758993 70.0047747 71.64198914 63.96182096 69.6796875 57.84765625 C69.05604977 55.91860033 68.43235009 53.98956444 67.80859375 52.06054688 C66.83536098 49.04322874 65.86312574 46.02559423 64.89208984 43.00756836 C63.94888099 40.07842027 63.00200171 37.15047873 62.0546875 34.22265625 C61.76302704 33.31234146 61.47136658 32.40202667 61.17086792 31.46412659 C60.900336 30.62913132 60.62980408 29.79413605 60.35107422 28.93383789 C60.11363495 28.19629776 59.87619568 27.45875763 59.63156128 26.6988678 C59.13146922 24.99267103 59.13146922 24.99267103 58 24 C57.80177139 24.62196259 57.60354279 25.24392517 57.39930725 25.88473511 C55.34116466 32.34126429 53.28074889 38.7970648 51.21899414 45.25244141 C50.44920103 47.6637123 49.67999341 50.07517019 48.91137695 52.48681641 C47.8083329 55.94743045 46.70320487 59.40737289 45.59765625 62.8671875 C45.25283707 63.95055389 44.90801788 65.03392029 44.55274963 66.15011597 C44.23249313 67.1510025 43.91223663 68.15188904 43.58227539 69.18310547 C43.30025772 70.06690887 43.01824005 70.95071228 42.72767639 71.86129761 C42 74 42 74 41 76 C35.72 76 30.44 76 25 76 C16.24861001 50.79035078 7.91897658 25.48340931 0 0 Z " fill="#2ADECD" transform="translate(545,476)"/>
<path d="M0 0 C8.64142447 8.48711332 13.50583475 17.39839529 14 29.625 C13.64860813 40.16675599 10.37112075 48.05946847 3.0078125 55.6171875 C-6.26126496 63.70171832 -15.5880838 64.45247511 -27.44238281 63.92480469 C-35.1153647 63.25252678 -41.46032287 58.36758141 -46.4375 52.75 C-51.78265515 45.46252086 -51.29682241 36.35217535 -50.4375 27.75 C-48.99965817 21.77396989 -45.51494213 18.33184273 -40.5078125 14.94140625 C-34.55661036 11.51665785 -28.98200067 11.15152019 -22.4375 12.75 C-17.64066382 14.65365601 -14.30477971 17.44908043 -11.4375 21.75 C-9.68392274 27.01073179 -9.51486461 32.64111911 -11.75 37.75 C-13.82286808 40.20673254 -15.42384674 41.66246518 -18.69921875 41.9453125 C-19.49972656 41.92210937 -20.30023438 41.89890625 -21.125 41.875 C-21.93324219 41.85695313 -22.74148438 41.83890625 -23.57421875 41.8203125 C-24.18910156 41.79710937 -24.80398438 41.77390625 -25.4375 41.75 C-24.4375 39.75 -23.4375 37.75 -22.4375 35.75 C-21.97009055 30.54833553 -21.97009055 30.54833553 -23.5 25.75 C-26.57876742 24.16095875 -29.03905579 24.39226903 -32.4375 24.75 C-35.43190997 26.20673998 -36.26102607 27.39705214 -37.75 30.375 C-38.92004523 36.11885839 -38.41000902 42.58722117 -35.4375 47.75 C-33.68910856 49.04165425 -33.68910856 49.04165425 -31.4375 49.75 C-30.57125 50.12125 -29.705 50.4925 -28.8125 50.875 C-21.02217938 52.89471275 -14.72703016 52.28979966 -7.640625 48.37890625 C-3.03000524 44.96999057 -0.55807808 40.30894617 0.5625 34.75 C1.26350882 26.75849942 -0.76674697 18.84704127 -5.6875 12.375 C-12.41791448 5.95051345 -19.05886075 3.19087207 -28.25 2.4375 C-38.23469105 2.77032304 -47.21469868 6.43577108 -54.22265625 13.56640625 C-60.98612507 21.79224671 -62.42897466 31.3532866 -61.4375 41.75 C-59.76558799 51.26596586 -54.94083395 59.46837296 -47.33984375 65.47265625 C-40.50975391 70.05877407 -33.48635692 71.52738882 -25.4375 72.75 C-25.4375 76.71 -25.4375 80.67 -25.4375 84.75 C-38.34548077 84.22670348 -49.95809549 80.80769019 -59.4375 71.75 C-60.13488281 71.09257813 -60.83226562 70.43515625 -61.55078125 69.7578125 C-71.27878568 59.75500569 -74.75 48.08669645 -74.75 34.47607422 C-74.50008916 21.12004378 -69.56247222 10.87497222 -60.15234375 1.46484375 C-43.37757953 -13.12783732 -17.23360477 -14.73486088 0 0 Z " fill="#42D4AE" transform="translate(525.4375,480.25)"/>
<path d="M0 0 C8.77968751 6.28228523 14.44454586 14.22272929 16.5625 24.8125 C17.281303 29.37976153 17.56895083 33.69638497 17.3125 38.3125 C15.58195391 40.04304609 13.23446747 39.48214628 10.87475586 39.51782227 C9.71362778 39.53776749 8.55249969 39.55771271 7.35618591 39.57826233 C6.092668 39.59497482 4.82915009 39.61168732 3.52734375 39.62890625 C2.24138809 39.64968735 0.95543243 39.67046844 -0.36949158 39.69187927 C-3.79385904 39.74716176 -7.2182875 39.79654361 -10.64276123 39.84472656 C-14.13494314 39.89489665 -17.6270361 39.9506061 -21.11914062 40.00585938 C-27.97518333 40.1135164 -34.83130633 40.21494449 -41.6875 40.3125 C-41.25731248 41.89855637 -40.81476657 43.48126343 -40.3671875 45.0625 C-40.12210449 45.94421875 -39.87702148 46.8259375 -39.62451172 47.734375 C-37.89437099 52.49474137 -34.93421132 56.16014204 -30.41796875 58.4765625 C-23.74779596 60.51864687 -15.40045966 60.563501 -9 57.625 C-6.38445213 56.21573585 -5.76258713 55.48649501 -4.5546875 52.6875 C-2.6875 50.3125 -2.6875 50.3125 -0.76538086 49.90893555 C1.67374211 49.81941935 4.06239694 49.87746002 6.5 50 C7.7674707 50.03383789 7.7674707 50.03383789 9.06054688 50.06835938 C11.14528798 50.12725037 13.22911804 50.21693202 15.3125 50.3125 C11.45973853 60.29928067 5.99846064 67.42982312 -3.6875 72.3125 C-14.56535029 76.75243889 -25.7717526 76.11931283 -36.6875 72.3125 C-46.37761782 67.56631984 -53.36975988 59.67266418 -56.99609375 49.57421875 C-57.22425781 48.82785156 -57.45242187 48.08148437 -57.6875 47.3125 C-57.87957031 46.71308594 -58.07164062 46.11367188 -58.26953125 45.49609375 C-60.70739897 32.7599437 -58.32761047 20.50447622 -51.41796875 9.63671875 C-39.34832252 -6.57420565 -17.10181916 -10.60197235 0 0 Z M-38.1875 16.1875 C-40.82934178 19.812694 -40.87129254 21.41525524 -41.6875 26.3125 C-27.8275 26.3125 -13.9675 26.3125 0.3125 26.3125 C-3.35288059 16.4626228 -3.35288059 16.4626228 -10.6875 10.3125 C-20.73875999 6.291996 -31.20981239 7.473737 -38.1875 16.1875 Z " fill="#4DE8B2" transform="translate(304.6875,479.6875)"/>
<path d="M0 0 C8.60339288 6.75980869 13.97636851 14.46797402 16.625 25.0625 C16.625 29.6825 16.625 34.3025 16.625 39.0625 C-12.085 39.5575 -12.085 39.5575 -41.375 40.0625 C-39.62926086 47.22231053 -39.62926086 47.22231053 -36.375 53.0625 C-36.375 53.7225 -36.375 54.3825 -36.375 55.0625 C-30.90687066 57.89782632 -26.68835115 59.35463892 -20.4375 59.375 C-18.66052734 59.40013672 -18.66052734 59.40013672 -16.84765625 59.42578125 C-12.91656711 59.01454245 -10.69113034 58.20557743 -7.375 56.0625 C-6.60800781 55.01835938 -5.84101562 53.97421875 -5.05078125 52.8984375 C-2.22190617 49.90024289 -1.97485871 49.65207225 1.83203125 49.4765625 C3.36828759 49.51612275 4.90400852 49.58723819 6.4375 49.6875 C7.22576172 49.71457031 8.01402344 49.74164062 8.82617188 49.76953125 C10.76030157 49.83986324 12.69301304 49.94747542 14.625 50.0625 C11.53801731 59.73951966 5.71044877 66.46011659 -3.1875 71.375 C-13.44801051 76.01523087 -25.06541919 76.1891428 -35.625 72.4375 C-40.71513742 70.17793579 -44.49136334 67.00472601 -48.375 63.0625 C-49.2103125 62.26005859 -49.2103125 62.26005859 -50.0625 61.44140625 C-57.28826372 53.90854757 -59.72635348 43.0677268 -59.58984375 32.875 C-58.91852598 24.08684008 -56.1819627 16.40183737 -51.375 9.0625 C-50.7975 8.175625 -50.22 7.28875 -49.625 6.375 C-35.8572853 -7.77515122 -16.80741936 -9.64870371 0 0 Z M-38.9296875 16.734375 C-40.88949424 19.65421921 -40.88949424 19.65421921 -42.375 26.0625 C-28.515 26.0625 -14.655 26.0625 -0.375 26.0625 C-1.88053657 18.53481713 -5.36669892 14.47676202 -11.375 10.0625 C-21.34875901 4.40171786 -32.02594617 8.83521051 -38.9296875 16.734375 Z " fill="#1AC4D8" transform="translate(841.375,479.9375)"/>
<path d="M0 0 C4.95 0 9.9 0 15 0 C15.33 13.2 15.66 26.4 16 40 C18.64 37.69 21.28 35.38 24 33 C32.66164008 29.10853852 40.84762991 28.68020883 49.875 31.75 C57.32548478 34.79792559 61.38600111 38.8734478 65 46 C66.53817456 50.06409914 67.25995133 53.48308097 67.31884766 57.82177734 C67.33871735 58.94248627 67.35858704 60.06319519 67.37905884 61.21786499 C67.39061005 62.41182892 67.40216125 63.60579285 67.4140625 64.8359375 C67.43342865 66.07042633 67.4527948 67.30491516 67.4727478 68.57681274 C67.53240097 72.50947212 67.57887263 76.442161 67.625 80.375 C67.66212543 83.04560453 67.70224525 85.71615364 67.7421875 88.38671875 C67.83809109 94.92438021 67.92217538 101.46209934 68 108 C62.72 108 57.44 108 52 108 C51.98541748 106.58783203 51.97083496 105.17566406 51.95581055 103.72070312 C51.89762889 98.4574309 51.82039696 93.1945776 51.73754883 87.93164062 C51.70439285 85.65827254 51.67633217 83.38482398 51.65356445 81.11132812 C51.6198471 77.83428815 51.56752158 74.55797944 51.51171875 71.28125 C51.50532883 70.27259888 51.4989389 69.26394775 51.49235535 68.22473145 C51.34639813 61.14304005 50.82045639 54.74994498 45.5 49.5625 C40.02790339 46.14243962 34.26191815 46.44032079 28 47 C24.35928908 48.01346031 21.89945437 49.67840907 19.7265625 52.87109375 C16.0427566 59.78149559 15.82077419 66.42510103 15.68359375 74.11328125 C15.66281265 75.08283249 15.64203156 76.05238373 15.62062073 77.05131531 C15.55541059 80.13830707 15.4963732 83.22538152 15.4375 86.3125 C15.39428763 88.40951364 15.35067248 90.50651903 15.30664062 92.60351562 C15.19975849 97.73559307 15.09841104 102.86775341 15 108 C10.05 108 5.1 108 0 108 C0 72.36 0 36.72 0 0 Z " fill="#56F1AE" transform="translate(167,444)"/>
<path d="M0 0 C8.30008683 -0.35838026 15.49159698 1.93624634 22.01171875 7.15234375 C29.56956119 14.41380022 31.74872661 22.40876815 32.09898376 32.7217865 C32.12676947 35.62624058 32.12423762 38.52904574 32.109375 41.43359375 C32.10796005 42.48768433 32.1065451 43.5417749 32.10508728 44.62780762 C32.09952383 47.96934946 32.08697816 51.31082242 32.07421875 54.65234375 C32.06919902 56.92838444 32.06463695 59.2044262 32.06054688 61.48046875 C32.04956638 67.03778665 32.03232714 72.59505355 32.01171875 78.15234375 C26.73171875 78.15234375 21.45171875 78.15234375 16.01171875 78.15234375 C15.98198975 76.07167603 15.98198975 76.07167603 15.95166016 73.94897461 C15.87537699 68.78457003 15.78669467 63.62043887 15.69433594 58.45629883 C15.65613992 56.22458305 15.62127094 53.99280768 15.58984375 51.76098633 C15.54398946 48.54617061 15.48602838 45.33176183 15.42578125 42.1171875 C15.41423004 41.12524887 15.40267883 40.13331024 15.39077759 39.11131287 C15.24927491 32.41388989 15.12092102 26.65008328 10.63671875 21.33984375 C4.75690371 16.43999788 -0.51944148 16.51158538 -7.98828125 17.15234375 C-12.760617 18.77152909 -15.24716342 20.94276995 -17.98828125 25.15234375 C-20.40509264 30.70371267 -20.33341805 36.06986691 -20.40234375 42.01953125 C-20.4217099 43.05425568 -20.44107605 44.0889801 -20.46102905 45.15505981 C-20.52059967 48.44573842 -20.5671203 51.73645243 -20.61328125 55.02734375 C-20.65148173 57.2643378 -20.69053466 59.50131747 -20.73046875 61.73828125 C-20.82628281 67.209518 -20.9103971 72.68082358 -20.98828125 78.15234375 C-25.93828125 78.15234375 -30.88828125 78.15234375 -35.98828125 78.15234375 C-35.98828125 53.07234375 -35.98828125 27.99234375 -35.98828125 2.15234375 C-31.03828125 2.15234375 -26.08828125 2.15234375 -20.98828125 2.15234375 C-20.65828125 5.12234375 -20.32828125 8.09234375 -19.98828125 11.15234375 C-19.32828125 10.43046875 -18.66828125 9.70859375 -17.98828125 8.96484375 C-12.81346028 3.80472397 -7.29839095 0.55920874 0 0 Z " fill="#20D5D3" transform="translate(738.98828125,473.84765625)"/>
<path d="M0 0 C6.57373147 5.44199015 8.41080546 9.89907575 9.6328125 18.453125 C4.6828125 18.453125 -0.2671875 18.453125 -5.3671875 18.453125 C-5.9034375 17.339375 -6.4396875 16.225625 -6.9921875 15.078125 C-8.60161099 12.28281052 -9.19925231 11.53895854 -12.1796875 10.015625 C-18.90687211 8.82847477 -23.38438663 9.34206855 -29.3671875 12.453125 C-30.89210748 15.50296496 -30.60281298 18.0954619 -30.3671875 21.453125 C-28.33484029 24.10249094 -26.50661899 24.94050336 -23.3046875 25.69921875 C-22.51296143 25.89435059 -21.72123535 26.08948242 -20.90551758 26.29052734 C-20.06786865 26.48855957 -19.23021973 26.6865918 -18.3671875 26.890625 C-16.64110092 27.3261659 -14.91583056 27.76495483 -13.19140625 28.20703125 C-12.35915527 28.4198877 -11.5269043 28.63274414 -10.66943359 28.85205078 C-1.32781521 31.29097596 6.67324062 34.34878501 12.1328125 42.765625 C13.75532214 51.4866143 12.6828475 58.04469802 7.6328125 65.453125 C2.77654207 71.19683571 -3.92764652 74.84887563 -11.41552734 75.68066406 C-22.53105638 76.44958689 -31.02618581 75.35527989 -40.6171875 69.453125 C-44.87454915 65.56068007 -47.37388867 59.76858854 -49.3671875 54.453125 C-49.3671875 52.803125 -49.3671875 51.153125 -49.3671875 49.453125 C-44.4171875 49.453125 -39.4671875 49.453125 -34.3671875 49.453125 C-30.3671875 57.203125 -30.3671875 57.203125 -30.3671875 59.453125 C-23.80115972 62.26033978 -18.38217147 63.07196746 -11.3671875 61.453125 C-7.71634003 59.77981991 -6.61180454 58.82005056 -4.3671875 55.453125 C-3.85067849 51.35601445 -3.85067849 51.35601445 -5.65625 47.85546875 C-10.10031802 44.21295637 -16.73631608 43.3606041 -22.21118164 42.12329102 C-30.75220077 40.15412544 -39.55512271 37.84871743 -44.9296875 30.328125 C-47.63778175 24.9119365 -48.26869916 20.02471898 -46.75390625 14.0234375 C-44.23901295 6.73357059 -40.20347172 2.14990077 -33.46875 -1.60546875 C-23.22356935 -6.28067127 -9.59641125 -6.27092221 0 0 Z " fill="#42E8BC" transform="translate(400.3671875,478.546875)"/>
<path d="M0 0 C5.28 0 10.56 0 16 0 C16 6.6 16 13.2 16 20 C22.93 20 29.86 20 37 20 C37 24.62 37 29.24 37 34 C30.07 34 23.14 34 16 34 C16.07404766 39.89061888 16.15692078 45.7797326 16.26245117 51.66967773 C16.29566727 53.67252764 16.32370952 55.6754704 16.34643555 57.6784668 C16.38004234 60.56078594 16.43236148 63.44225668 16.48828125 66.32421875 C16.49467117 67.21711105 16.5010611 68.11000336 16.50764465 69.029953 C16.6201206 73.8058745 16.86101012 77.14228968 20 81 C23.06533164 82.53266582 26.26754272 82.10276471 29.625 82.0625 C30.68460938 82.05573242 30.68460938 82.05573242 31.765625 82.04882812 C33.51045275 82.03703875 35.255237 82.01910324 37 82 C37 86.62 37 91.24 37 96 C28.67173339 98.67962246 18.61720905 100.09547087 10.375 96.4375 C4.52401923 92.81243583 2.01772891 87.92793678 0.42312622 81.36212158 C-0.34959923 77.0483462 -0.24314215 72.74453061 -0.1953125 68.375 C-0.1924826 67.38749756 -0.18965271 66.39999512 -0.18673706 65.38256836 C-0.1756182 62.25491785 -0.15052916 59.12756272 -0.125 56 C-0.11495948 53.86849374 -0.10583551 51.73698296 -0.09765625 49.60546875 C-0.07570607 44.4035335 -0.04123391 39.20181669 0 34 C-4.29 34 -8.58 34 -13 34 C-13 29.38 -13 24.76 -13 20 C-8.71 20 -4.42 20 0 20 C0 13.4 0 6.8 0 0 Z " fill="#17B9E2" transform="translate(877,456)"/>
<path d="M0 0 C0 6.93 0 13.86 0 21 C6.93 21 13.86 21 21 21 C21 25.62 21 30.24 21 35 C14.07 35 7.14 35 0 35 C0.09711106 40.72955228 0.19995189 46.45841091 0.31738281 52.1875 C0.35558233 54.13502798 0.39045075 56.08262435 0.421875 58.03027344 C0.46772196 60.83553446 0.52568366 63.64032839 0.5859375 66.4453125 C0.60326431 67.74409836 0.60326431 67.74409836 0.62094116 69.06912231 C0.73352665 73.71765327 1.07399915 77.67997411 3 82 C6.18824568 83.59412284 9.62896662 83.10174735 13.125 83.0625 C14.25615234 83.05573242 14.25615234 83.05573242 15.41015625 83.04882812 C17.27347127 83.03703499 19.13674555 83.01909942 21 83 C21 87.62 21 92.24 21 97 C16.0078656 98.6168074 11.73846231 99.29618935 6.4375 99.3125 C5.17808594 99.32925781 3.91867188 99.34601563 2.62109375 99.36328125 C-3.78538905 98.72055967 -7.91087799 95.86273969 -12 91 C-15.37381843 84.86067359 -15.39630745 79.50978879 -15.29296875 72.59765625 C-15.28872391 71.51995468 -15.28447906 70.44225311 -15.28010559 69.33189392 C-15.26338719 65.90850254 -15.22574683 62.4857118 -15.1875 59.0625 C-15.17244436 56.73373249 -15.1587575 54.40495571 -15.14648438 52.07617188 C-15.11350593 46.3838851 -15.06177019 40.6920442 -15 35 C-19.62 35 -24.24 35 -29 35 C-29 30.38 -29 25.76 -29 21 C-24.38 21 -19.76 21 -15 21 C-15 14.4 -15 7.8 -15 1 C-1.125 0 -1.125 0 0 0 Z " fill="#5FF6A4" transform="translate(133,455)"/>
<path d="M0 0 C4.95 0 9.9 0 15 0 C15 35.64 15 71.28 15 108 C10.05 108 5.1 108 0 108 C0 72.36 0 36.72 0 0 Z " fill="#38EBC7" transform="translate(424,444)"/>
<path d="M0 0 C4.95 0 9.9 0 15 0 C15 13.53 15 27.06 15 41 C14.67 41 14.34 41 14 41 C14 28.13 14 15.26 14 2 C10.04 2 6.08 2 2 2 C2 36.32 2 70.64 2 106 C5.96 106 9.92 106 14 106 C14 90.82 14 75.64 14 60 C14.33 60 14.66 60 15 60 C15 75.84 15 91.68 15 108 C10.05 108 5.1 108 0 108 C0 72.36 0 36.72 0 0 Z " fill="#68F0C1" transform="translate(167,444)"/>
<path d="M0 0 C0.66 0 1.32 0 2 0 C2 35.64 2 71.28 2 108 C1.34 108 0.68 108 0 108 C0 107.34 0 106.68 0 106 C-3.63 106 -7.26 106 -11 106 C-11 105.67 -11 105.34 -11 105 C-7.7 105 -4.4 105 -1 105 C-1.00222061 103.71404938 -1.00444122 102.42809875 -1.00672913 101.10317993 C-1.02696689 89.00713225 -1.04197522 76.91108798 -1.05181217 64.81502724 C-1.05703938 58.59575319 -1.0641341 52.37649277 -1.07543945 46.15722656 C-1.08627407 40.15965007 -1.09227806 34.16208671 -1.09487724 28.16450119 C-1.09673045 25.87187874 -1.10034908 23.57925705 -1.10573006 21.28664017 C-1.11294807 18.08512038 -1.11399061 14.88365547 -1.11352539 11.68212891 C-1.11712067 10.72619339 -1.12071594 9.77025787 -1.12442017 8.78535461 C-1.1230455 7.91594742 -1.12167084 7.04654022 -1.12025452 6.15078735 C-1.12117631 5.39307352 -1.1220981 4.63535969 -1.12304783 3.85468483 C-1 2 -1 2 0 0 Z " fill="#35D5BA" transform="translate(437,444)"/>
<path d="M0 0 C4.95 0 9.9 0 15 0 C15 3.3 15 6.6 15 10 C14.67 10 14.34 10 14 10 C14 7.36 14 4.72 14 2 C10.04 2 6.08 2 2 2 C2 25.76 2 49.52 2 74 C5.96 74 9.92 74 14 74 C14 58.82 14 43.64 14 28 C14.33 28 14.66 28 15 28 C15 43.84 15 59.68 15 76 C10.05 76 5.1 76 0 76 C0 50.92 0 25.84 0 0 Z " fill="#27F3EE" transform="translate(703,476)"/>
<path d="M0 0 C0.33 0 0.66 0 1 0 C1 5.28 1 10.56 1 16 C7.93 16 14.86 16 22 16 C22 20.62 22 25.24 22 30 C15.07 30 8.14 30 1 30 C1 44.52 1 59.04 1 74 C0.67 74 0.34 74 0 74 C-1.24551699 69.18601219 -1.12689044 64.47653113 -1.09765625 59.54296875 C-1.0962413 58.64000565 -1.09482635 57.73704254 -1.09336853 56.80671692 C-1.08778823 53.93361037 -1.07523934 51.06058284 -1.0625 48.1875 C-1.05748245 46.23502717 -1.05291999 44.28255311 -1.04882812 42.33007812 C-1.03867779 37.55333076 -1.01909853 32.77675344 -1 28 C5.93 28 12.86 28 20 28 C20 24.7 20 21.4 20 18 C18.65164062 18.02320313 17.30328125 18.04640625 15.9140625 18.0703125 C14.15104719 18.08906798 12.38802591 18.10726842 10.625 18.125 C9.73554688 18.14175781 8.84609375 18.15851563 7.9296875 18.17578125 C7.07890625 18.18222656 6.228125 18.18867188 5.3515625 18.1953125 C4.17327881 18.21102295 4.17327881 18.21102295 2.97119141 18.22705078 C1 18 1 18 -1 16 C-1.23046875 13.57421875 -1.23046875 13.57421875 -1.1875 10.6875 C-1.18105469 9.74261719 -1.17460937 8.79773438 -1.16796875 7.82421875 C-1.00747977 5.12576443 -0.59933915 2.63229753 0 0 Z " fill="#6FFABE" transform="translate(132,460)"/>
<path d="M0 0 C4.62 0 9.24 0 14 0 C14 0.33 14 0.66 14 1 C10.04 1 6.08 1 2 1 C2.02320312 2.34835937 2.04640625 3.69671875 2.0703125 5.0859375 C2.08906798 6.84895281 2.10726842 8.61197409 2.125 10.375 C2.14175781 11.26445312 2.15851563 12.15390625 2.17578125 13.0703125 C2.18222656 13.92109375 2.18867187 14.771875 2.1953125 15.6484375 C2.20578613 16.43395996 2.21625977 17.21948242 2.22705078 18.02880859 C2 20 2 20 0 22 C-2.8203125 22.1953125 -2.8203125 22.1953125 -6.125 22.125 C-7.22070312 22.10695313 -8.31640625 22.08890625 -9.4453125 22.0703125 C-10.28835937 22.04710937 -11.13140625 22.02390625 -12 22 C-12 25.3 -12 28.6 -12 32 C-11.15695313 31.97679687 -10.31390625 31.95359375 -9.4453125 31.9296875 C-7.80175781 31.90261719 -7.80175781 31.90261719 -6.125 31.875 C-4.48917969 31.84019531 -4.48917969 31.84019531 -2.8203125 31.8046875 C0 32 0 32 2 34 C2.24050903 35.87295532 2.24050903 35.87295532 2.22705078 38.17431641 C2.22689972 39.03505768 2.22674866 39.89579895 2.22659302 40.78262329 C2.21627045 41.71287323 2.20594788 42.64312317 2.1953125 43.6015625 C2.1924826 44.55316254 2.18965271 45.50476257 2.18673706 46.48519897 C2.17551989 49.53192592 2.15041263 52.57836154 2.125 55.625 C2.11497218 57.68749576 2.10584599 59.74999612 2.09765625 61.8125 C2.07557554 66.87511267 2.0410353 71.9375069 2 77 C1.34 77 0.68 77 0 77 C0 62.81 0 48.62 0 34 C-4.62 34 -9.24 34 -14 34 C-14 29.38 -14 24.76 -14 20 C-9.38 20 -4.76 20 0 20 C0 13.4 0 6.8 0 0 Z " fill="#73FABC" transform="translate(118,456)"/>
<path d="M0 0 C0.33 0 0.66 0 1 0 C1.19590444 3.47874757 1.38031592 6.95800904 1.5625 10.4375 C1.61857422 11.43072266 1.67464844 12.42394531 1.73242188 13.44726562 C1.78076172 14.39150391 1.82910156 15.33574219 1.87890625 16.30859375 C1.9260376 17.18314209 1.97316895 18.05769043 2.02172852 18.95874023 C2 21 2 21 1 22 C-1.01964199 22.07244053 -3.04167124 22.08377188 -5.0625 22.0625 C-6.71958984 22.04896484 -6.71958984 22.04896484 -8.41015625 22.03515625 C-9.26480469 22.02355469 -10.11945312 22.01195312 -11 22 C-11 25.3 -11 28.6 -11 32 C-7.04 32 -3.08 32 1 32 C1 47.51 1 63.02 1 79 C0.67 79 0.34 79 0 79 C0 64.15 0 49.3 0 34 C-4.29 34 -8.58 34 -13 34 C-13 29.38 -13 24.76 -13 20 C-8.71 20 -4.42 20 0 20 C0 13.4 0 6.8 0 0 Z " fill="#147E92" transform="translate(877,456)"/>
<path d="M0 0 C4.95 0 9.9 0 15 0 C19 7.75 19 7.75 19 10 C20.65 10.66 22.3 11.32 24 12 C22.68 12.33 21.36 12.66 20 13 C20 12.34 20 11.68 20 11 C18.68 10.34 17.36 9.68 16 9 C16 8.34 16 7.68 16 7 C15.01 7 14.02 7 13 7 C13 6.01 13 5.02 13 4 C12.01 4.33 11.02 4.66 10 5 C9.67 4.34 9.34 3.68 9 3 C6.87423218 2.53348793 6.87423218 2.53348793 4.4375 2.375 C3.61121094 2.30023437 2.78492188 2.22546875 1.93359375 2.1484375 C1.29550781 2.09945312 0.65742188 2.05046875 0 2 C0 1.34 0 0.68 0 0 Z " fill="#3EBD9F" transform="translate(351,528)"/>
<path d="M0 0 C0.33 0 0.66 0 1 0 C1.01458252 1.24088379 1.02916504 2.48176758 1.04418945 3.76025391 C1.10230723 8.37870621 1.17953947 12.99667784 1.26245117 17.61474609 C1.29563713 19.61076029 1.32368868 21.60686689 1.34643555 23.60302734 C1.38009793 26.4779384 1.43241977 29.35200743 1.48828125 32.2265625 C1.49786613 33.55815903 1.49786613 33.55815903 1.50764465 34.91665649 C1.62794822 40.02449318 2.25306056 43.52942801 5 48 C3.125 47.875 3.125 47.875 1 47 C-1.39465522 41.81175218 -1.18367001 37.01505994 -0.9765625 31.4453125 C-0.95153656 30.54376434 -0.92651062 29.64221619 -0.90072632 28.71334839 C-0.81893334 25.85015971 -0.72218758 22.98770334 -0.625 20.125 C-0.5667188 18.17711269 -0.50941645 16.22919583 -0.453125 14.28125 C-0.3134154 9.52041654 -0.16029898 4.76018289 0 0 Z " fill="#16A7D3" transform="translate(892,490)"/>
<path d="M0 0 C0.99 0 1.98 0 3 0 C2.67 2.64 2.34 5.28 2 8 C3.65 7.67 5.3 7.34 7 7 C6.34 8.65 5.68 10.3 5 12 C2.03 12 -0.94 12 -4 12 C-3.34 10.68 -2.68 9.36 -2 8 C-1.5845535 6.59466244 -1.20799564 5.17712415 -0.875 3.75 C-0.58625 2.5125 -0.2975 1.275 0 0 Z " fill="#55CEAA" transform="translate(504,510)"/>
<path d="M0 0 C1.1240625 -0.01417969 2.248125 -0.02835937 3.40625 -0.04296875 C6.36976056 0.17779782 8.0067415 0.6414353 10.5 2.1875 C10.5 2.8475 10.5 3.5075 10.5 4.1875 C7.3742604 4.07787184 4.24975219 3.94718759 1.125 3.8125 C0.23554687 3.7815625 -0.65390625 3.750625 -1.5703125 3.71875 C-2.42109375 3.68007813 -3.271875 3.64140625 -4.1484375 3.6015625 C-4.93395996 3.5701416 -5.71948242 3.5387207 -6.52880859 3.50634766 C-8.5 3.1875 -8.5 3.1875 -10.5 1.1875 C-6.9775246 0.10831023 -3.67240199 0.02105735 0 0 Z " fill="#16B5C3" transform="translate(820.5,473.8125)"/>
<path d="M0 0 C1.65 0 3.3 0 5 0 C5 4.62 5 9.24 5 14 C3.02 14.33 1.04 14.66 -1 15 C-0.67 14.01 -0.34 13.02 0 12 C0.66 12 1.32 12 2 12 C2 9.03 2 6.06 2 3 C1.34 2.67 0.68 2.34 0 2 C0 1.34 0 0.68 0 0 Z " fill="#14A7CF" transform="translate(909,538)"/>
<path d="M0 0 C0.33 0 0.66 0 1 0 C1.39271606 2.20525173 1.76343631 4.41442704 2.125 6.625 C2.33382813 7.85476563 2.54265625 9.08453125 2.7578125 10.3515625 C3.01067018 14.16074112 2.45153404 16.50556619 1 20 C0.34 19.67 -0.32 19.34 -1 19 C-1.02690104 16.20826945 -1.04679053 13.41679652 -1.0625 10.625 C-1.07087891 9.8309375 -1.07925781 9.036875 -1.08789062 8.21875 C-1.11328125 2.2265625 -1.11328125 2.2265625 0 0 Z " fill="#3AE1C7" transform="translate(452,506)"/>
<path d="M0 0 C0.33 0 0.66 0 1 0 C1.04898438 0.89203125 1.09796875 1.7840625 1.1484375 2.703125 C1.22320313 3.87359375 1.29796875 5.0440625 1.375 6.25 C1.44460938 7.41015625 1.51421875 8.5703125 1.5859375 9.765625 C1.97084978 12.77229826 2.64267351 14.37583546 4 17 C3.625 20.75 3.625 20.75 3 24 C-1.28340245 17.57489633 -1.61379721 9.55113309 -1 2 C-0.67 1.34 -0.34 0.68 0 0 Z " fill="#17B9C0" transform="translate(783,508)"/>
<path d="M0 0 C-0.60062256 0.0501123 -1.20124512 0.10022461 -1.82006836 0.15185547 C-4.52681499 0.38316547 -7.23206122 0.62888405 -9.9375 0.875 C-10.88302734 0.95363281 -11.82855469 1.03226562 -12.80273438 1.11328125 C-13.70185547 1.19707031 -14.60097656 1.28085937 -15.52734375 1.3671875 C-16.77632446 1.47716064 -16.77632446 1.47716064 -18.05053711 1.58935547 C-18.69385986 1.72486816 -19.33718262 1.86038086 -20 2 C-20.33 2.66 -20.66 3.32 -21 4 C-22.65 3.67 -24.3 3.34 -26 3 C-19.16788796 -1.55474136 -7.2095373 -4.8063582 0 0 Z " fill="#39BFA7" transform="translate(503,472)"/>
<path d="M0 0 C0.33 0 0.66 0 1 0 C1.19590444 3.47874757 1.38031592 6.95800904 1.5625 10.4375 C1.61857422 11.43072266 1.67464844 12.42394531 1.73242188 13.44726562 C1.78076172 14.39150391 1.82910156 15.33574219 1.87890625 16.30859375 C1.9260376 17.18314209 1.97316895 18.05769043 2.02172852 18.95874023 C2 21 2 21 1 22 C-0.97619447 22.12514928 -2.95738173 22.1757276 -4.9375 22.1875 C-6.01902344 22.20167969 -7.10054687 22.21585937 -8.21484375 22.23046875 C-11 22 -11 22 -13 20 C-8.71 20 -4.42 20 0 20 C0 13.4 0 6.8 0 0 Z " fill="#12889F" transform="translate(877,456)"/>
<path d="M0 0 C0.49628906 0.39832031 0.99257813 0.79664063 1.50390625 1.20703125 C8.35391229 6.54925607 14.34328609 9.24063913 23 10 C19.68593767 12.20937488 18.19407789 12.26397553 14.33203125 11.68359375 C9.01974057 10.12638961 3.90398104 6.90398104 0 3 C0 2.01 0 1.02 0 0 Z " fill="#49D4BC" transform="translate(357,542)"/>
<path d="M0 0 C5.61 0 11.22 0 17 0 C16.67 1.65 16.34 3.3 16 5 C12.25 6.125 12.25 6.125 10 5 C10 4.34 10 3.68 10 3 C7.03 3 4.06 3 1 3 C0.67 2.01 0.34 1.02 0 0 Z " fill="#18B6D2" transform="translate(839,530)"/>
<path d="M0 0 C0.66 0.33 1.32 0.66 2 1 C2.05423638 2.91635217 2.09289963 4.83314925 2.125 6.75 C2.14820313 7.81734375 2.17140625 8.8846875 2.1953125 9.984375 C2.00487687 12.92470106 1.52670104 14.52361878 0 17 C-1.42597611 14.14804778 -1.1320252 11.67538825 -1.125 8.5 C-1.12757813 7.3346875 -1.13015625 6.169375 -1.1328125 4.96875 C-1 2 -1 2 0 0 Z " fill="#49B291" transform="translate(537,503)"/>
<path d="M0 0 C2 3 2 3 2 11 C-4.93 10.67 -11.86 10.34 -19 10 C-19 9.67 -19 9.34 -19 9 C-13.06 9 -7.12 9 -1 9 C-0.67 6.03 -0.34 3.06 0 0 Z " fill="#40C79B" transform="translate(320,507)"/>
<path d="M0 0 C-1.28515625 1.4921875 -1.28515625 1.4921875 -3 3 C-6.4375 3.125 -6.4375 3.125 -10 3 C-12.31036915 3.42854995 -12.31036915 3.42854995 -14 4 C-14 2.68 -14 1.36 -14 0 C-9.20699867 -1.39151652 -4.84864218 -0.68662689 0 0 Z " fill="#45B794" transform="translate(503,493)"/>
<path d="M0 0 C4.95 0.99 4.95 0.99 10 2 C10 2.66 10 3.32 10 4 C13.63 4.33 17.26 4.66 21 5 C21 5.33 21 5.66 21 6 C13.54049225 6.50194819 7.44013015 6.10371084 1 2 C0.67 1.34 0.34 0.68 0 0 Z " fill="#45D9BD" transform="translate(486,538)"/>
<path d="M0 0 C0.33 0 0.66 0 1 0 C1.125 6.75 1.125 6.75 0 9 C-0.66 9 -1.32 9 -2 9 C-2 11.97 -2 14.94 -2 18 C-2.66 17.67 -3.32 17.34 -4 17 C-4.56131481 10.54487966 -2.63463787 5.84560277 0 0 Z " fill="#3FC3A8" transform="translate(357,485)"/>
<path d="M0 0 C2 2 2 2 2 5 C2.99 5.33 3.98 5.66 5 6 C5.144375 6.598125 5.28875 7.19625 5.4375 7.8125 C6.18951488 10.7370023 7.79712511 12.01030655 10 14 C6.36049307 14 5.89614199 13.35322893 3.375 10.875 C0.35183362 7.73702983 -1 5.50088909 -1 1 C-0.67 0.67 -0.34 0.34 0 0 Z " fill="#3DE1C7" transform="translate(460,539)"/>
<path d="M0 0 C5.28 0 10.56 0 16 0 C15.34 1.65 14.68 3.3 14 5 C13.67 4.01 13.34 3.02 13 2 C6.565 2.495 6.565 2.495 0 3 C0 2.01 0 1.02 0 0 Z " fill="#2BEAE3" transform="translate(646,476)"/>
<path d="M0 0 C0 3 0 3 0 3 Z M-1 3 C-1 3.66 -1 4.32 -1 5 C-1.66 5 -2.32 5 -3 5 C-3.33 5.99 -3.66 6.98 -4 8 C-6.0625 9.1875 -6.0625 9.1875 -8 10 C-8.33 9.01 -8.66 8.02 -9 7 C-6.52914451 3.29371676 -5.37054922 3 -1 3 Z " fill="#3BE5C4" transform="translate(468,482)"/>
<path d="M0 0 C0.66 0 1.32 0 2 0 C3.58847863 2.20571604 4.95817483 4.51217315 6.3671875 6.8359375 C8.09364686 9.12411569 9.36518623 9.96204306 12 11 C12 11.66 12 12.32 12 13 C7.54443592 11.59967986 5.00046335 9.56811858 2 6 C0.6875 2.6875 0.6875 2.6875 0 0 Z " fill="#63D2A6" transform="translate(119,540)"/>
<path d="M0 0 C-3.44615385 4.8 -3.44615385 4.8 -6.25 5.8125 C-7.11625 5.9053125 -7.11625 5.9053125 -8 6 C-8 5.34 -8 4.68 -8 4 C-8.99 3.67 -9.98 3.34 -11 3 C-9.73581754 2.30034557 -8.46334598 1.61565237 -7.1875 0.9375 C-6.47980469 0.55464844 -5.77210938 0.17179688 -5.04296875 -0.22265625 C-3 -1 -3 -1 0 0 Z " fill="#49B894" transform="translate(521,529)"/>
<path d="M0 0 C0.33 0.99 0.66 1.98 1 3 C-0.45823212 3.0270043 -1.91660675 3.04639787 -3.375 3.0625 C-4.18710937 3.07410156 -4.99921875 3.08570313 -5.8359375 3.09765625 C-8 3 -8 3 -10 2 C-10 1.34 -10 0.68 -10 0 C-3.15175097 -1.40077821 -3.15175097 -1.40077821 0 0 Z " fill="#3FE6CB" transform="translate(497,561)"/>
<path d="M0 0 C3.71888239 0.50712033 6.73454239 1.11608215 10 3 C9.67 3.99 9.34 4.98 9 6 C7.68277821 5.57692877 6.37127336 5.13602514 5.0625 4.6875 C4.33160156 4.44386719 3.60070312 4.20023438 2.84765625 3.94921875 C1 3 1 3 0 0 Z " fill="#3BDABE" transform="translate(480,549)"/>
<path d="M0 0 C2.6875 -0.3125 2.6875 -0.3125 6 0 C8.875 2.5 8.875 2.5 11 5 C10.01 5 9.02 5 8 5 C7.67 4.67 7.34 4.34 7 4 C5.65252916 3.76924918 4.29622435 3.58846937 2.9375 3.4375 C1.638125 3.293125 0.33875 3.14875 -1 3 C-0.67 2.01 -0.34 1.02 0 0 Z " fill="#48C29E" transform="translate(493,501)"/>
<path d="M0 0 C0.99 0 1.98 0 3 0 C2.25 7.625 2.25 7.625 0 11 C-0.99 10.67 -1.98 10.34 -3 10 C-2.690625 9.46375 -2.38125 8.9275 -2.0625 8.375 C-0.82172561 5.6015043 -0.4090325 2.99957163 0 0 Z " fill="#4DC39E" transform="translate(504,510)"/>
<path d="M0 0 C4.62 0 9.24 0 14 0 C14 0.99 14 1.98 14 3 C8.80790596 3.21192221 4.873261 2.5912689 0 1 C0 0.67 0 0.34 0 0 Z " fill="#17AAD3" transform="translate(893,551)"/>
<path d="M0 0 C0 0.99 0 1.98 0 3 C-5.75 6 -5.75 6 -8 6 C-8 5.01 -8 4.02 -8 3 C-5.11165997 0.89229241 -3.61537605 0 0 0 Z " fill="#4DC29F" transform="translate(525,536)"/>
<path d="M0 0 C0.33 0 0.66 0 1 0 C1 1.65 1 3.3 1 5 C1.99 5.33 2.98 5.66 4 6 C4.33 6.99 4.66 7.98 5 9 C4.34 9 3.68 9 3 9 C3.33 9.99 3.66 10.98 4 12 C3.34 12 2.68 12 2 12 C2 11.01 2 10.02 2 9 C1.34 9 0.68 9 0 9 C0 6.03 0 3.06 0 0 Z " fill="#43EDCD" transform="translate(475,512)"/>
<path d="M0 0 C2.35171131 0.59861742 4.6859378 1.26924352 7 2 C7.33 2.66 7.66 3.32 8 4 C8.99 3.67 9.98 3.34 11 3 C11 3.66 11 4.32 11 5 C9.4375 5.75 9.4375 5.75 7 6 C4.49713591 4.86915563 2.32992278 3.47860484 0 2 C0 1.34 0 0.68 0 0 Z " fill="#51D1AC" transform="translate(261,546)"/>
<path d="M0 0 C6.0546875 -0.1953125 6.0546875 -0.1953125 8 0 C8.66 0.66 9.32 1.32 10 2 C6.7 2.33 3.4 2.66 0 3 C0 2.01 0 1.02 0 0 Z " fill="#47BA98" transform="translate(507,541)"/>
<path d="M0 0 C3.39192363 0.59283621 5.2107757 1.76743189 7.75 4.0625 C8.67039062 4.88427734 8.67039062 4.88427734 9.609375 5.72265625 C10.29773438 6.35494141 10.29773438 6.35494141 11 7 C10.34 7.66 9.68 8.32 9 9 C7.62437146 7.71034824 6.29233607 6.37310707 5 5 C5 4.34 5 3.68 5 3 C2.525 2.01 2.525 2.01 0 1 C0 0.67 0 0.34 0 0 Z " fill="#4BCFB4" transform="translate(302,480)"/>
<path d="M0 0 C2 1 2 1 3 3 C2.34 3 1.68 3 1 3 C0.67 4.32 0.34 5.64 0 7 C-0.99 7 -1.98 7 -3 7 C-1.125 1.125 -1.125 1.125 0 0 Z " fill="#41DABD" transform="translate(479,501)"/>
<path d="M0 0 C0.66 0.99 1.32 1.98 2 3 C1.125 6.1875 1.125 6.1875 0 9 C-2 6 -2 6 -1.6875 3.375 C-1 1 -1 1 0 0 Z " fill="#35CFB3" transform="translate(454,524)"/>
<path d="M0 0 C-0.33 0.99 -0.66 1.98 -1 3 C-4.0625 4.1875 -4.0625 4.1875 -7 5 C-7 3.68 -7 2.36 -7 1 C-4.53721199 -0.231394 -2.7204945 -0.07159196 0 0 Z " fill="#3ADABB" transform="translate(480,475)"/>
<path d="M0 0 C1.61949011 2.57213134 2.04408751 3.67669159 1.625 6.75 C1.41875 7.4925 1.2125 8.235 1 9 C0.01 8.67 -0.98 8.34 -2 8 C-1.125 2.25 -1.125 2.25 0 0 Z " fill="#38D4B7" transform="translate(463,501)"/>
<path d="M0 0 C2.12508244 3.18762365 2.5020163 5.26512223 3 9 C2.01 9 1.02 9 0 9 C-1.125 3.375 -1.125 3.375 0 0 Z " fill="#2AC7B8" transform="translate(564,487)"/>
<path d="M0 0 C1.66666667 3.33333333 3.33333333 6.66666667 5 10 C3.125 9.875 3.125 9.875 1 9 C-0.64661571 5.3931275 -1.27162597 3.8148779 0 0 Z " fill="#129DB8" transform="translate(892,528)"/>
<path d="M0 0 C2.38672669 2.96283313 4.7353371 5.94270509 7 9 C6.01 9 5.02 9 4 9 C0.8217901 5.7309841 0 4.67834007 0 0 Z " fill="#4FCAA8" transform="translate(264,528)"/>
<path d="M0 0 C0.66 0 1.32 0 2 0 C1.25 6.75 1.25 6.75 -1 9 C-1.125 2.25 -1.125 2.25 0 0 Z " fill="#39D5BD" transform="translate(456,493)"/>
<path d="M0 0 C1.5 1.375 1.5 1.375 3 3 C3 3.66 3 4.32 3 5 C5.475 5.99 5.475 5.99 8 7 C6.68 7.33 5.36 7.66 4 8 C4 7.34 4 6.68 4 6 C2.68 5.34 1.36 4.68 0 4 C0 2.68 0 1.36 0 0 Z " fill="#42C0A7" transform="translate(367,533)"/>
<path d="M0 0 C5.75 1.75 5.75 1.75 8 4 C5 5 5 5 2.3125 3.6875 C1.549375 3.130625 0.78625 2.57375 0 2 C0 1.34 0 0.68 0 0 Z " fill="#3BE1C3" transform="translate(472,544)"/>
<path d="M0 0 C2.12508244 3.18762365 2.5020163 5.26512223 3 9 C2.34 9 1.68 9 1 9 C-1.125 2.25 -1.125 2.25 0 0 Z " fill="#25C6BE" transform="translate(624,517)"/>
<path d="M0 0 C0.99 0 1.98 0 3 0 C3.99 1.98 4.98 3.96 6 6 C5.01 6 4.02 6 3 6 C0 2.66666667 0 2.66666667 0 0 Z " fill="#42C9AE" transform="translate(355,506)"/>
<path d="M0 0 C0.33 1.32 0.66 2.64 1 4 C0.01 4.66 -0.98 5.32 -2 6 C-2.99 5.67 -3.98 5.34 -5 5 C-3.35 3.35 -1.7 1.7 0 0 Z " fill="#59E1AD" transform="translate(187,480)"/>
<path d="" fill="#15180E" transform="translate(0,0)"/>
<path d="" fill="#0B1818" transform="translate(0,0)"/>
<path d="" fill="#0A101B" transform="translate(0,0)"/>
<path d="" fill="#111912" transform="translate(0,0)"/>
</svg>
